<svg xmlns="http://www.w3.org/2000/svg" xmlns:xlink="http://www.w3.org/1999/xlink"><defs><style>
    .sprite-symbol-usage {display: none;}
    .sprite-symbol-usage:target {display: inline;}
  </style><symbol viewBox="0 0 497.07 526.22" id="ico-h-height"><defs><style>#ico-h-height .cls-1{isolation:isolate;}#ico-h-height .cls-2{fill-rule:evenodd;}</style></defs><title>ico-h-height</title><g id="ico-h-height_Слой_2" data-name="Слой 2"><g id="ico-h-height_shtab" class="cls-1"><g id="ico-h-height_Изображение_2" data-name="Изображение 2"><path class="cls-2" d="M328.88,257.3V256c-15.69-2.11-35.92-1.12-51.23,1.27l-25.83,1.27c-8.59,1.36-19.37,2.45-28.37,1.27L223,259l45.31-5.51.42-.84c-6.1-2.52-19-1-25.4,0l-49.12,2.54-.42-8.47-3.81-.85q-.42-28.78-.85-57.58l3,.42-.42-18.63H171.37c-.14-2.4-.29-4.8-.43-7.2L161.2,162q-1.26-70.48-2.54-141c-.71-.62-23.94-.46-27.1.43l-3,2.54-16.94,2.54c-16.09,4.15-32.81,5.85-47.84,7.62-.14,1.83-.28,3.67-.43,5.5L54.5,40.93V60.84h8.89c.71.56,1.42,1.12,2.12,1.69-.64,3.89.89,10.59.42,14.4-3.08,25,0,52.36,0,77.48-43.62-2.28-34.41,13.87-41.07,48.7-3.48,18.22-5,42.17,12.28,45.72,6.51,24.86,2.46,33,25.83,41.92.56,3.39,1.13,6.78,1.69,10.17,8.39,30.63,6.61,81.89,6.36,119.4C66.41,418.69,60.71,412,54.08,414c-1.49.82-1.66,1.08-2.12,3,1.8,3.51,3.77,5.71,8,6.78v1.69l-25.83,1.27c0-6.69-1.83-9.34-2.54-13.55l6.35,1.7v-.43c-3.57-4.39-13.68-2.05-19.9-3.81l-3,1.27c.14.43.29.85.43,1.27,3.16.62,6.69-2.46,8,2.54l-1.69.43v.42c-.09.2-.24,27.12.42,28.37l3,2.12-8,1.69L16,453.77c-18.91,1.91-21.38,30.28-5.5,37.26,17.07,7.51,35.62-11.27,25.82-27.1,3.14-4,4.5-5.55,4.24-13.55-2-2.26-4.41-3.51-8.89-3.38,1.06-2.71,17.73-5.41,22.86-3l14,11.86c2.52,2.8.56,19,.43,23.71l12.7,4.66.42,1.27c-11.53,13.75-9.49,35.94,9.74,40.22,15.84,3.53,25-13.66,24.56-28.37l27.1,11c6.34-6.09,21.42-2.95,30.91-5.92,11.13-3.49,26.12-3.26,38.11-5.51,23-4.32,48.79-6.4,70.71-11,7.63-1.6,21.3,4.76,25,3,2-1,2.63-3.91,4.24-5.09,2.89-2.11,5.37-.05,7.19-3.38,1.34-1.76,1-6.64.85-9.74-14.06-4.38-29.71.51-43.61,3-25.91,4.57-49,4.76-74.52,9.74-8.44,1.65-32,6.47-36,5.08-2.37-2.39-1.41-14.24-1.27-17.36l54.62-7.62v2.12l7.2-.43c3.1.59,5.56,2.13,10.16,2.12a20.52,20.52,0,0,1,10.16-5.93c1.47-2.52,1.86-5.79,1.69-10.16-4.88-2.67-12.22-.53-18.63-1.27l-64.36,8.47c-2.14-3.05-1.69-44.1-1.69-51.66q-.85-66.47-1.7-132.95c14.82-4,32.58-1.55,50-4.24C251.8,263.49,293.45,267,328.88,257.3ZM44.76,250.53H54.5l7.2,34.3C53.92,280.22,39.22,263,44.76,250.53ZM33.33,239.94c-9-6.43-.49-44.86,1.27-57.16.7-4.91-.34-12,2.12-16.51l9.31-7.2,18.21,2.12c3.21,2.53,1.69,17.11,1.69,22.44q.64,29,1.27,58C55.63,238.23,43.17,247,33.33,239.94ZM98.11,394.07l-.84-87.65,5.93,1.27.84,69.87q-3,7.83-5.93,15.66Zm4.24,20.75L99,408c-2.85-7.93,3.5-18.08,5.08-23.29q.42,19.69.85,39.38C103.1,422,103.19,417.87,102.35,414.82ZM103.62,281a127.65,127.65,0,0,1-.85,13.55c-2,.41-3.56-.87-5.08.43L96,294.56c-1.16-8.93-.14-17.21-.85-25.82,2.64-.7,7.14-.84,9.32-2.12H107l.42,12.7C106.42,280.29,105.19,280.54,103.62,281ZM93.46,137.9c-3.46-13-.26-35.05-.43-49.54-.11-10.06-3.25-23-.42-32.18,4.53-4.26,23.89-2.41,30.91-5.08h5.08c2.68,5.91.14,15.62,1.27,22.86l.42,68.6c-7.11-4.33-12-6.66-21.17-2.54C107.55,141,98.71,138,93.46,137.9ZM129,188.29c0,21.2.92,38,.85,54.62-4.54.12-10.67.6-13.12-1.27-2.62-2-1.7-9.53-1.7-14V188.71Zm-14-24.14c6.54.31,8.16-.68,11.86-3.81v9.74l-11.44.42Zm.42,103.74c2.5-3.33,12.55-2.19,17.37-2.12v32.61l-14-.85v-14C117.66,279.33,111.34,273.94,115.47,267.89Zm7.63,180h-.43q1.27-2.32,2.54-4.65l-3.38-3.39q-1.27-64.57-2.54-129.15l13.55,1.27q1.26,65.85,2.54,131.69C131.9,446.18,128.25,446.6,123.1,447.84ZM209.9,497v.42l-1.7-.42ZM182.38,244.6v1.27L172.21,245l-.84-1.27.42-55.46,11,.42Z" transform="translate(0)" /></g></g><g id="ico-h-height_ico"><path id="ico-h-height_height" d="M458.88,416c-1.92,0-3.48-3.58-3.48-8V392c0-4.42,1.56-8,3.48-8h38.19V320H458.88c-1.92,0-3.48-3.58-3.48-8V296c0-4.42,1.56-8,3.48-8h38.19V224H458.88c-1.92,0-3.48-3.58-3.48-8V200c0-4.42,1.56-8,3.48-8h38.19V128H458.88c-1.92,0-3.48-3.58-3.48-8V104c0-4.42,1.56-8,3.48-8h38.19V32c0-17.67-6.22-32-13.89-32H399.84C392.17,0,386,14.33,386,32V480c0,17.67,6.22,32,13.89,32h83.34c7.67,0,13.89-14.33,13.89-32V416Z" transform="translate(0)" /></g></g></symbol><symbol viewBox="0 0 488.95 505.56" id="ico-h-money"><defs><style>#ico-h-money .cls-1{isolation:isolate;}#ico-h-money .cls-2{fill-rule:evenodd;}</style></defs><title>ico-h-money</title><g id="ico-h-money_Слой_2" data-name="Слой 2"><g id="ico-h-money_shtab" class="cls-1"><g id="ico-h-money_Изображение_2" data-name="Изображение 2"><path class="cls-2" d="M328.88,236.64v-1.27c-15.69-2.11-35.92-1.12-51.23,1.27l-25.83,1.28c-8.59,1.35-19.37,2.44-28.37,1.27l-.43-.85,45.31-5.51.42-.84c-6.1-2.51-19-1-25.4,0l-49.12,2.54-.42-8.47-3.81-.85q-.42-28.78-.85-57.58l3,.42-.42-18.63H171.37c-.14-2.4-.29-4.8-.43-7.2l-9.74-.85q-1.26-70.49-2.54-141c-.71-.62-23.94-.46-27.1.43l-3,2.54L111.66,5.88C95.57,10,78.85,11.73,63.82,13.5c-.14,1.84-.28,3.67-.43,5.51L54.5,20.28v19.9h8.89l2.12,1.69c-.64,3.89.89,10.59.42,14.4-3.08,25,0,52.36,0,77.48-43.62-2.28-34.41,13.87-41.07,48.7-3.48,18.22-5,42.18,12.28,45.73C43.65,253,39.6,261.19,63,270.1c.56,3.38,1.13,6.77,1.69,10.16,8.39,30.63,6.61,81.89,6.36,119.4-4.61-1.63-10.31-8.33-16.94-6.35-1.49.82-1.66,1.08-2.12,3,1.8,3.5,3.77,5.7,8,6.77v1.69L34.18,406c0-6.69-1.83-9.34-2.54-13.55l6.35,1.7v-.43c-3.57-4.39-13.68-2.05-19.9-3.81l-3,1.27c.14.43.29.85.43,1.27,3.16.62,6.69-2.46,8,2.55l-1.69.42v.42c-.09.2-.24,27.13.42,28.37l3,2.12-8,1.69c-.42,1.7-.85,3.39-1.27,5.08-18.91,1.91-21.38,30.28-5.5,37.26,17.07,7.51,35.62-11.27,25.82-27.09,3.14-4,4.5-5.56,4.24-13.55-2-2.26-4.41-3.52-8.89-3.39,1.06-2.71,17.73-5.4,22.86-3l14,11.86c2.52,2.8.56,19,.43,23.71l12.7,4.66.42,1.27c-11.53,13.75-9.49,35.94,9.74,40.22,15.84,3.53,25-13.66,24.56-28.36l27.1,11c6.34-6.09,21.42-3,30.91-5.92,11.13-3.49,26.12-3.26,38.11-5.51,23-4.32,48.79-6.4,70.71-11,7.63-1.6,21.3,4.76,25,3,2-1,2.63-3.91,4.24-5.08,2.89-2.12,5.37-.06,7.19-3.39,1.34-1.75,1-6.64.85-9.74-14.06-4.38-29.71.51-43.61,3-25.91,4.57-49,4.76-74.52,9.74-8.44,1.65-32,6.47-36,5.08-2.37-2.39-1.41-14.24-1.27-17.36l54.62-7.62V445l7.2-.42c3.1.58,5.56,2.12,10.16,2.11a20.52,20.52,0,0,1,10.16-5.93c1.47-2.52,1.86-5.79,1.69-10.16-4.88-2.67-12.22-.53-18.63-1.27l-64.36,8.47c-2.14-3-1.69-44.09-1.69-51.66q-.85-66.47-1.7-133c14.82-4,32.58-1.55,50-4.24C251.8,242.83,293.45,246.38,328.88,236.64ZM44.76,229.87H54.5l7.2,34.3C53.92,259.56,39.22,242.3,44.76,229.87ZM33.33,219.28c-9-6.43-.49-44.85,1.27-57.16.7-4.91-.34-12,2.12-16.51l9.31-7.2,18.21,2.12c3.21,2.53,1.69,17.11,1.69,22.44q.64,29,1.27,58C55.63,217.57,43.17,226.3,33.33,219.28ZM98.11,373.41l-.84-87.65L103.2,287,104,356.9q-3,7.83-5.93,15.66Zm4.24,20.75L99,387.38c-2.85-7.92,3.5-18.08,5.08-23.28q.42,19.68.85,39.37C103.1,401.35,103.19,397.21,102.35,394.16Zm1.27-133.8a128,128,0,0,1-.85,13.55c-2,.4-3.56-.88-5.08.42L96,273.91c-1.16-8.94-.14-17.22-.85-25.83,2.64-.7,7.14-.84,9.32-2.12H107l.42,12.7C106.42,259.63,105.19,259.88,103.62,260.36ZM93.46,117.24c-3.46-13-.26-35-.43-49.54-.11-10.06-3.25-23.05-.42-32.18,4.53-4.26,23.89-2.41,30.91-5.08h5.08c2.68,5.91.14,15.63,1.27,22.86l.42,68.6c-7.11-4.33-12-6.66-21.17-2.54C107.55,120.36,98.71,117.32,93.46,117.24ZM129,167.63c0,21.2.92,38,.85,54.62-4.54.12-10.67.61-13.12-1.27-2.62-2-1.7-9.53-1.7-14v-39Zm-14-24.14c6.54.31,8.16-.68,11.86-3.81v9.74l-11.44.42Zm.42,103.74c2.5-3.33,12.55-2.19,17.37-2.12v32.61l-14-.85v-14C117.66,258.67,111.34,253.28,115.47,247.23Zm7.63,180h-.43l2.54-4.66-3.38-3.39q-1.27-64.56-2.54-129.14l13.55,1.27q1.26,65.84,2.54,131.68C131.9,425.52,128.25,425.94,123.1,427.19Zm86.8,49.11v.43l-1.7-.43ZM182.38,223.94v1.27l-10.17-.84-.84-1.27.42-55.47,11,.42Z" transform="translate(0 0)" /></g></g><g id="ico-h-money_ico"><path id="ico-h-money_money" d="M476.91,49.64H260.13a12,12,0,0,0-12,12V182.11a12.06,12.06,0,0,0,12,12H476.91a12,12,0,0,0,12-12V61.68A12,12,0,0,0,476.91,49.64ZM266.15,176.09V152a24.08,24.08,0,0,1,24.08,24.08Zm0-84.3V67.7h24.08A24.08,24.08,0,0,1,266.15,91.79ZM368.52,158c-16.63,0-30.11-16.18-30.11-36.13s13.48-36.13,30.11-36.13,30.1,16.17,30.1,36.13S385.14,158,368.52,158Zm102.36,18.06H446.8A24.08,24.08,0,0,1,470.88,152Zm0-84.3A24.08,24.08,0,0,1,446.8,67.7h24.08Z" transform="translate(0 0)" /></g></g></symbol><symbol viewBox="0 0 483.91 551.22" id="ico-h-weight"><defs><style>#ico-h-weight .cls-1{isolation:isolate;}#ico-h-weight .cls-2{fill-rule:evenodd;}#ico-h-weight .cls-3{fill:#fff;}</style></defs><title>ico-h-weight</title><g id="ico-h-weight_Слой_2" data-name="Слой 2"><g id="ico-h-weight_shtab" class="cls-1"><g id="ico-h-weight_Изображение_2" data-name="Изображение 2"><path class="cls-2" d="M328.88,282.3V281c-15.69-2.11-35.92-1.12-51.23,1.27l-25.83,1.27c-8.59,1.36-19.37,2.45-28.37,1.27L223,284l45.31-5.51.42-.84c-6.1-2.52-19-1-25.4,0l-49.12,2.54-.42-8.47-3.81-.85q-.42-28.78-.85-57.58l3,.42-.42-18.63H171.37c-.14-2.4-.29-4.8-.43-7.2L161.2,187q-1.26-70.49-2.54-141c-.71-.62-23.94-.46-27.1.43l-3,2.54-16.94,2.54c-16.09,4.15-32.81,5.85-47.84,7.62-.14,1.83-.28,3.67-.43,5.5L54.5,65.93V85.84h8.89c.71.56,1.42,1.12,2.12,1.69-.64,3.89.89,10.59.42,14.4-3.08,25,0,52.36,0,77.48-43.62-2.28-34.41,13.87-41.07,48.7-3.48,18.22-5,42.17,12.28,45.72,6.51,24.86,2.46,33,25.83,41.92.56,3.39,1.13,6.78,1.69,10.17,8.39,30.63,6.61,81.89,6.36,119.4C66.41,443.69,60.71,437,54.08,439c-1.49.82-1.66,1.08-2.12,3,1.8,3.51,3.77,5.71,8,6.78v1.69l-25.83,1.27c0-6.69-1.83-9.34-2.54-13.55l6.35,1.7v-.43c-3.57-4.39-13.68-2.05-19.9-3.81l-3,1.27c.14.43.29.85.43,1.27,3.16.62,6.69-2.46,8,2.54l-1.69.43v.42c-.09.2-.24,27.12.42,28.37l3,2.12-8,1.69L16,478.77c-18.91,1.91-21.38,30.28-5.5,37.26,17.07,7.51,35.62-11.27,25.82-27.1,3.14-4,4.5-5.55,4.24-13.55-2-2.26-4.41-3.51-8.89-3.38,1.06-2.71,17.73-5.41,22.86-3l14,11.86c2.52,2.8.56,19,.43,23.71l12.7,4.66.42,1.27c-11.53,13.75-9.49,35.94,9.74,40.22,15.84,3.53,25-13.66,24.56-28.37l27.1,11c6.34-6.09,21.42-2.95,30.91-5.92,11.13-3.49,26.12-3.26,38.11-5.51,23-4.32,48.79-6.4,70.71-11,7.63-1.6,21.3,4.76,25,3,2-1,2.63-3.91,4.24-5.09,2.89-2.11,5.37-.05,7.19-3.38,1.34-1.76,1-6.64.85-9.74-14.06-4.38-29.71.51-43.61,3-25.91,4.57-49,4.76-74.52,9.74-8.44,1.65-32,6.47-36,5.08-2.37-2.39-1.41-14.24-1.27-17.36l54.62-7.62v2.12l7.2-.43c3.1.59,5.56,2.13,10.16,2.12a20.52,20.52,0,0,1,10.16-5.93c1.47-2.52,1.86-5.79,1.69-10.16-4.88-2.67-12.22-.53-18.63-1.27l-64.36,8.47c-2.14-3.05-1.69-44.1-1.69-51.66q-.85-66.47-1.7-132.95c14.82-4,32.58-1.55,50-4.24C251.8,288.49,293.45,292,328.88,282.3ZM44.76,275.53H54.5l7.2,34.3C53.92,305.22,39.22,288,44.76,275.53ZM33.33,264.94c-9-6.43-.49-44.86,1.27-57.16.7-4.91-.34-12,2.12-16.51l9.31-7.2,18.21,2.12c3.21,2.53,1.69,17.11,1.69,22.44q.64,29,1.27,58C55.63,263.23,43.17,272,33.33,264.94ZM98.11,419.07l-.84-87.65,5.93,1.27.84,69.87q-3,7.83-5.93,15.66Zm4.24,20.75L99,433c-2.85-7.93,3.5-18.08,5.08-23.29q.42,19.69.85,39.38C103.1,447,103.19,442.87,102.35,439.82ZM103.62,306a127.65,127.65,0,0,1-.85,13.55c-2,.41-3.56-.87-5.08.43L96,319.56c-1.16-8.93-.14-17.21-.85-25.82,2.64-.7,7.14-.84,9.32-2.12H107l.42,12.7C106.42,305.29,105.19,305.54,103.62,306ZM93.46,162.9c-3.46-13-.26-35.05-.43-49.54-.11-10.06-3.25-23-.42-32.18,4.53-4.26,23.89-2.41,30.91-5.08h5.08c2.68,5.91.14,15.62,1.27,22.86l.42,68.6c-7.11-4.33-12-6.66-21.17-2.54C107.55,166,98.71,163,93.46,162.9ZM129,213.29c0,21.2.92,38,.85,54.62-4.54.12-10.67.6-13.12-1.27-2.62-2-1.7-9.53-1.7-14V213.71Zm-14-24.14c6.54.31,8.16-.68,11.86-3.81v9.74l-11.44.42Zm.42,103.74c2.5-3.33,12.55-2.19,17.37-2.12v32.61l-14-.85v-14C117.66,304.33,111.34,298.94,115.47,292.89Zm7.63,180h-.43q1.27-2.32,2.54-4.65l-3.38-3.39q-1.27-64.57-2.54-129.15l13.55,1.27q1.26,65.85,2.54,131.69C131.9,471.18,128.25,471.6,123.1,472.84ZM209.9,522v.42l-1.7-.42ZM182.38,269.6v1.27L172.21,270l-.84-1.27.42-55.46,11,.42Z" transform="translate(0)" /></g></g><g id="ico-h-weight_ico"><path id="ico-h-weight_weight" d="M483,240.92,443.51,83.07c-2.05-8.21-8.88-13.9-16.68-13.9H394.27A51.37,51.37,0,0,0,345.58,0,51.88,51.88,0,0,0,293.7,51.88a51.19,51.19,0,0,0,3.18,17.29H264.32c-7.8,0-14.63,5.69-16.68,13.9L208.17,240.92c-4.5,18,7.92,35.74,25,35.74H458C475.05,276.66,487.48,258.92,483,240.92ZM345.57,69.16a17.29,17.29,0,1,1,17.29-17.29A17.31,17.31,0,0,1,345.57,69.16Z" transform="translate(0)" /><g id="ico-h-weight_kg"><path class="cls-3" d="M312.76,179.21l-7.52,8.55v22.86h-8.79V143h8.79v33l6.55-8.18L331.63,143h10.46l-23.66,29.6,25.24,38.06H333.21Z" transform="translate(0)" /><path class="cls-3" d="M397.43,201.75a27.15,27.15,0,0,1-9.8,7.43,29.48,29.48,0,0,1-12.13,2.37,23.88,23.88,0,0,1-7.69-1.27,22.22,22.22,0,0,1-6.3-3.4,24.08,24.08,0,0,1-4.88-5.09,32.23,32.23,0,0,1-3.51-6.34,36.34,36.34,0,0,1-2.13-7.16,42.49,42.49,0,0,1-.77-7.55v-7.85a48.74,48.74,0,0,1,.67-7.51,37.86,37.86,0,0,1,1.93-7.17,32,32,0,0,1,3.25-6.39,22.17,22.17,0,0,1,4.67-5.12,21.84,21.84,0,0,1,6.16-3.41,22.28,22.28,0,0,1,7.72-1.26,25.07,25.07,0,0,1,8.73,1.47,20.67,20.67,0,0,1,7,4.18,20.93,20.93,0,0,1,4.79,6.55,25.1,25.1,0,0,1,2.23,8.58h-8.5a24.8,24.8,0,0,0-1.58-5.42,13.66,13.66,0,0,0-2.82-4.25,12.44,12.44,0,0,0-4.15-2.77,14.82,14.82,0,0,0-5.63-1,13.33,13.33,0,0,0-5.44,1,13.67,13.67,0,0,0-4.13,2.81,15.54,15.54,0,0,0-2.93,4.12,29,29,0,0,0-1.9,4.94,33.18,33.18,0,0,0-1.07,5.3,42.88,42.88,0,0,0-.33,5.21v7.94a42.39,42.39,0,0,0,.44,5.28,33.4,33.4,0,0,0,1.24,5.32,26,26,0,0,0,2.13,4.92,17.5,17.5,0,0,0,3.14,4.09,14,14,0,0,0,4.25,2.81,14.17,14.17,0,0,0,5.49,1.1,31.28,31.28,0,0,0,3.69-.14,18.1,18.1,0,0,0,3.74-.75,14.78,14.78,0,0,0,3.39-1.51,8.48,8.48,0,0,0,2.65-2.48l.09-15.2H375.36v-7.25h21.93Z" transform="translate(0)" /></g></g></g></symbol><symbol viewBox="0 0 514.95 505.56" id="ico-h-width"><defs><style>#ico-h-width .cls-1{isolation:isolate;}#ico-h-width .cls-2{fill-rule:evenodd;}</style></defs><title>ico-h-width</title><g id="ico-h-width_Слой_2" data-name="Слой 2"><g id="ico-h-width_shtab" class="cls-1"><g id="ico-h-width_Изображение_2" data-name="Изображение 2"><path class="cls-2" d="M328.88,236.64v-1.27c-15.69-2.11-35.92-1.12-51.23,1.27l-25.83,1.28c-8.59,1.35-19.37,2.44-28.37,1.27l-.43-.85,45.31-5.51.42-.84c-6.1-2.51-19-1-25.4,0l-49.12,2.54-.42-8.47-3.81-.85q-.42-28.78-.85-57.58l3,.42-.42-18.63H171.37c-.14-2.4-.29-4.8-.43-7.2l-9.74-.85q-1.26-70.49-2.54-141c-.71-.62-23.94-.46-27.1.43l-3,2.54L111.66,5.88C95.57,10,78.85,11.73,63.82,13.5c-.14,1.84-.28,3.67-.43,5.51L54.5,20.28v19.9h8.89l2.12,1.69c-.64,3.89.89,10.59.42,14.4-3.08,25,0,52.36,0,77.48-43.62-2.28-34.41,13.87-41.07,48.7-3.48,18.22-5,42.18,12.28,45.73C43.65,253,39.6,261.19,63,270.1c.56,3.38,1.13,6.77,1.69,10.16,8.39,30.63,6.61,81.89,6.36,119.4-4.61-1.63-10.31-8.33-16.94-6.35-1.49.82-1.66,1.08-2.12,3,1.8,3.5,3.77,5.7,8,6.77v1.69L34.18,406c0-6.69-1.83-9.34-2.54-13.55l6.35,1.7v-.43c-3.57-4.39-13.68-2.05-19.9-3.81l-3,1.27c.14.43.29.85.43,1.27,3.16.62,6.69-2.46,8,2.55l-1.69.42v.42c-.09.2-.24,27.13.42,28.37l3,2.12-8,1.69c-.42,1.7-.85,3.39-1.27,5.08-18.91,1.91-21.38,30.28-5.5,37.26,17.07,7.51,35.62-11.27,25.82-27.09,3.14-4,4.5-5.56,4.24-13.55-2-2.26-4.41-3.52-8.89-3.39,1.06-2.71,17.73-5.4,22.86-3l14,11.86c2.52,2.8.56,19,.43,23.71l12.7,4.66.42,1.27c-11.53,13.75-9.49,35.94,9.74,40.22,15.84,3.53,25-13.66,24.56-28.36l27.1,11c6.34-6.09,21.42-3,30.91-5.92,11.13-3.49,26.12-3.26,38.11-5.51,23-4.32,48.79-6.4,70.71-11,7.63-1.6,21.3,4.76,25,3,2-1,2.63-3.91,4.24-5.08,2.89-2.12,5.37-.06,7.19-3.39,1.34-1.75,1-6.64.85-9.74-14.06-4.38-29.71.51-43.61,3-25.91,4.57-49,4.76-74.52,9.74-8.44,1.65-32,6.47-36,5.08-2.37-2.39-1.41-14.24-1.27-17.36l54.62-7.62V445l7.2-.42c3.1.58,5.56,2.12,10.16,2.11a20.52,20.52,0,0,1,10.16-5.93c1.47-2.52,1.86-5.79,1.69-10.16-4.88-2.67-12.22-.53-18.63-1.27l-64.36,8.47c-2.14-3-1.69-44.09-1.69-51.66q-.85-66.47-1.7-133c14.82-4,32.58-1.55,50-4.24C251.8,242.83,293.45,246.38,328.88,236.64ZM44.76,229.87H54.5l7.2,34.3C53.92,259.56,39.22,242.3,44.76,229.87ZM33.33,219.28c-9-6.43-.49-44.85,1.27-57.16.7-4.91-.34-12,2.12-16.51l9.31-7.2,18.21,2.12c3.21,2.53,1.69,17.11,1.69,22.44q.64,29,1.27,58C55.63,217.57,43.17,226.3,33.33,219.28ZM98.11,373.41l-.84-87.65L103.2,287,104,356.9q-3,7.83-5.93,15.66Zm4.24,20.75L99,387.38c-2.85-7.92,3.5-18.08,5.08-23.28q.42,19.68.85,39.37C103.1,401.35,103.19,397.21,102.35,394.16Zm1.27-133.8a128,128,0,0,1-.85,13.55c-2,.4-3.56-.88-5.08.42L96,273.91c-1.16-8.94-.14-17.22-.85-25.83,2.64-.7,7.14-.84,9.32-2.12H107l.42,12.7C106.42,259.63,105.19,259.88,103.62,260.36ZM93.46,117.24c-3.46-13-.26-35-.43-49.54-.11-10.06-3.25-23.05-.42-32.18,4.53-4.26,23.89-2.41,30.91-5.08h5.08c2.68,5.91.14,15.63,1.27,22.86l.42,68.6c-7.11-4.33-12-6.66-21.17-2.54C107.55,120.36,98.71,117.32,93.46,117.24ZM129,167.63c0,21.2.92,38,.85,54.62-4.54.12-10.67.61-13.12-1.27-2.62-2-1.7-9.53-1.7-14v-39Zm-14-24.14c6.54.31,8.16-.68,11.86-3.81v9.74l-11.44.42Zm.42,103.74c2.5-3.33,12.55-2.19,17.37-2.12v32.61l-14-.85v-14C117.66,258.67,111.34,253.28,115.47,247.23Zm7.63,180h-.43l2.54-4.66-3.38-3.39q-1.27-64.56-2.54-129.14l13.55,1.27q1.26,65.84,2.54,131.68C131.9,425.52,128.25,425.94,123.1,427.19Zm86.8,49.11v.43l-1.7-.43ZM182.38,223.94v1.27l-10.17-.84-.84-1.27.42-55.47,11,.42Z" transform="translate(0 0)" /></g></g><g id="ico-h-width_ico"><path id="ico-h-width_width" d="M498,95H472.58V117.2c0,1.11-1.89,2-4.23,2h-8.48c-2.34,0-4.23-.9-4.23-2V95h-33.9V117.2c0,1.11-1.89,2-4.23,2H409c-2.34,0-4.24-.9-4.24-2V95H370.9V117.2c0,1.11-1.9,2-4.24,2h-8.47c-2.34,0-4.24-.9-4.24-2V95H320.06V117.2c0,1.11-1.9,2-4.24,2h-8.47c-2.34,0-4.24-.9-4.24-2V95h-33.9V117.2c0,1.11-1.89,2-4.23,2H256.5c-2.34,0-4.23-.9-4.23-2V95H226.85c-9.36,0-16.95,3.61-16.95,8.06v48.34c0,4.45,7.59,8.05,16.95,8.05H498c9.35,0,16.94-3.6,16.94-8.05V103.1C515,98.65,507.36,95,498,95Z" transform="translate(0 0)" /></g></g></symbol><symbol viewBox="0 0 561.86 337.11" id="ico-money"><title>ico-money</title><g id="ico-money_Слой_2" data-name="Слой 2"><g id="ico-money_Слой_14" data-name="Слой 14"><path d="M533.76,0H28.09A28.09,28.09,0,0,0,0,28.09V309a28.09,28.09,0,0,0,28.09,28.09H533.76A28.1,28.1,0,0,0,561.86,309V28.09A28.1,28.1,0,0,0,533.76,0ZM42.14,295V238.79A56.19,56.19,0,0,1,98.33,295Zm0-196.65V42.14H98.33A56.19,56.19,0,0,1,42.14,98.33ZM280.93,252.84c-38.8,0-70.23-37.75-70.23-84.28s31.44-84.28,70.23-84.28,70.23,37.73,70.23,84.28S319.71,252.84,280.93,252.84ZM519.72,295H463.53a56.18,56.18,0,0,1,56.19-56.19Zm0-196.65a56.19,56.19,0,0,1-56.19-56.19h56.19Z" /></g></g></symbol><symbol viewBox="0 0 635.89 496.93" id="ico-r"><defs><style>#ico-r .cls-1{isolation:isolate;}#ico-r .cls-2{fill-rule:evenodd;}</style></defs><title>ico-r</title><g id="ico-r_Слой_2" data-name="Слой 2"><g id="ico-r_Изображение_2" data-name="Изображение 2" class="cls-1"><g id="ico-r_Изображение_2-2" data-name="Изображение 2"><path class="cls-2" d="M628,3.62c-29.25-7.88-64.73-3.19-79,17-19.38,27.41-2.93,68.2,21,77,6.83,12,.74,52.19-2,69q-3.5,62.49-7,125c-4.64,14.12-11.53,30.46-15,47l-8,7-1-1c2-4.68,2-5.32,7-7q-.5-7-1-14c-3-3.84-6.78-4.36-14-4q.5-9.51,1-19c-15.92-2.84-30.73-9-45-5-2.8,6.16.39,13.87-1,19-2.82,2.63-16.51,4.09-20,5-11.59,19-33.76,83.58-38,107l-256-20c-24.61-.54-79.2-12.87-98-2-3.34,2.23-3.15,3.3-3,9,6.71,1.52,12.28,3.1,14,10l4,4v1c-29.29-.37-57.78-6.12-84,0l-3,8c4.28,6.14,23.1,19,31,16,9,2,7.81,11.86,17,14l15-3,14,6c10.47,2.13,22.26-4,30-6l63,5,158,15c44.29,7.87,97.39,13.56,142,13,4-10.47,10.48-12.59,13-26,13.81,8.95,30.94,23.21,50,26,25.86,3.77,47.76-27.09,41-53-4.89-18.75-16.77-21.33-33-29,.06-1.21,6.24-8.55,6-20h26c1.46-5,.12-5,6-6,1-2,5.76-17.44,4-21l-6-4s1.13-57.91,3-71q6-95,12-190l34-29C638,56.26,639.6,19,628,3.62Zm-121,352c.33,1.33.67,2.66,1,4h-1Zm5-6c-.41,8.7-4.51,29.29-1,42-.33.66-.67,1.33-1,2l-4-1c4-14.66,4.12-37.17,2-52l12-2h4c.33,1.33.67,2.66,1,4A19.45,19.45,0,0,1,512,349.62Zm65-311c-8.79,3.2-14.63,4.34-19,12v1c8-1.63,7.59-3.11,18-3l-3,42-18-10c-11.89-20.15,2-58.93,23-63Q577.5,28.1,577,38.62Zm16,50,6-77,20,2c3.23,6,2.94,15.11,3,25C622.16,67,614.78,81,593,88.62Z" /></g></g></g></symbol><symbol viewBox="0 0 635.89 497.32" id="ico-r-h"><defs><style>#ico-r-h .cls-1{isolation:isolate;}#ico-r-h .cls-2{fill-rule:evenodd;}</style></defs><title>ico-r-h</title><g id="ico-r-h_" data-name=""><g id="ico-r-h_" data-name="Изображение 2" class="cls-1"><g id="ico-r-h_Изображение_2-2" data-name="Изображение 2"><path class="cls-2" d="M628,4C598.75-3.87,563.27.81,549,21c-19.38,27.42-2.93,68.2,21,77,6.83,12,.74,52.19-2,69q-3.5,62.49-7,125c-4.64,14.13-11.53,30.47-15,47l-8,7-1-1c2-4.67,2-5.31,7-7q-.5-7-1-14c-3-3.83-6.78-4.36-14-4q.5-9.5,1-19c-15.92-2.83-30.73-9-45-5-2.8,6.17.39,13.87-1,19-2.82,2.63-16.51,4.09-20,5-11.59,19-33.76,83.59-38,107L170,407c-24.61-.54-79.2-12.86-98-2-3.34,2.23-3.15,3.31-3,9,6.71,1.53,12.28,3.1,14,10l4,4v1c-29.29-.36-57.78-6.12-84,0l-3,8c4.28,6.15,23.1,19,31,16,9,2,7.81,11.87,17,14l15-3,14,6c10.47,2.14,22.26-4,30-6l63,5,158,15c44.29,7.87,97.39,13.56,142,13,4-10.47,10.48-12.59,13-26,13.81,8.95,30.94,23.22,50,26,25.86,3.78,47.76-27.09,41-53-4.89-18.74-16.77-21.33-33-29,.06-1.21,6.24-8.54,6-20h26c1.46-5,.12-5,6-6,1-2,5.76-17.44,4-21l-6-4s1.13-57.9,3-71l12-190,34-29C638,56.64,639.6,19.35,628,4ZM507,356c.33,1.33.67,2.67,1,4h-1Zm5-6c-.41,8.7-4.51,29.3-1,42-.33.67-.67,1.33-1,2l-4-1c4-14.65,4.12-37.16,2-52l12-2h4l1,4A19.37,19.37,0,0,1,512,350ZM577,39c-8.79,3.21-14.63,4.34-19,12v1c8-1.63,7.59-3.1,18-3l-3,42L555,81c-11.89-20.14,2-58.92,23-63Q577.5,28.5,577,39Zm16,50,6-77,20,2c3.23,6,2.94,15.11,3,25C622.16,67.41,614.78,81.41,593,89Z" /></g></g><g id="ico-r-h_h"><path d="M280,179.74a51.7,51.7,0,0,1,17.6-16.3,48.22,48.22,0,0,1,23.5-6,56.87,56.87,0,0,1,19,3,36.35,36.35,0,0,1,14.58,9.41,43,43,0,0,1,9.29,16.18,73.68,73.68,0,0,1,3.26,23.19v83.8H344.43V209q0-16.36-7.82-24.36t-22.33-7.88a37.87,37.87,0,0,0-19.87,5.35A42.82,42.82,0,0,0,280,196.35v96.72H257.19v-189H280Z" /></g><g id="ico-r-h_Изображение_7" data-name="Изображение 7" class="cls-1"><g id="ico-r-h_Изображение_7-2" data-name="Изображение 7"><polygon class="cls-2" points="123.49 280.2 146.81 280.55 149.23 116.29 125.91 115.95 156.41 1.56 183.51 116.79 160.19 116.45 157.77 280.71 181.09 281.05 150.59 395.44 123.49 280.2" /><path d="M156.38,3.12,183,116.41l-22.45-.33h-.76l0,.76-2.41,163.49v.76h.76l22.46.33-30,112.46L124,280.59l22.45.33h.76l0-.76,2.41-163.49v-.76h-.76l-22.46-.33,30-112.46M156.43,0l-31,116.32,23.43.35-2.41,163.49L123,279.82,150.57,397l31-116.32-23.43-.35,2.41-163.49,23.43.34L156.43,0Z" /></g></g></g></symbol><symbol viewBox="0 0 635.89 496.93" id="ico-r-height"><defs><style>#ico-r-height .cls-1{isolation:isolate;}#ico-r-height .cls-2{fill-rule:evenodd;}</style></defs><title>ico-r-height_1</title><g id="ico-r-height_Слой_2" data-name="Слой 2"><g id="ico-r-height_ico-r" class="cls-1"><g id="ico-r-height_Изображение_2" data-name="Изображение 2"><path class="cls-2" d="M628,3.62c-29.25-7.88-64.73-3.19-79,17-19.38,27.41-2.93,68.2,21,77,6.83,12,.74,52.19-2,69q-3.5,62.49-7,125c-4.64,14.12-11.53,30.46-15,47l-8,7-1-1c2-4.68,2-5.32,7-7q-.5-7-1-14c-3-3.84-6.78-4.36-14-4q.5-9.51,1-19c-15.92-2.84-30.73-9-45-5-2.8,6.16.39,13.87-1,19-2.82,2.63-16.51,4.09-20,5-11.59,19-33.76,83.58-38,107l-256-20c-24.61-.54-79.2-12.87-98-2-3.34,2.23-3.15,3.3-3,9,6.71,1.52,12.28,3.1,14,10l4,4v1c-29.29-.37-57.78-6.12-84,0l-3,8c4.28,6.14,23.1,19,31,16,9,2,7.81,11.86,17,14l15-3,14,6c10.47,2.13,22.26-4,30-6l63,5,158,15c44.29,7.87,97.39,13.56,142,13,4-10.47,10.48-12.59,13-26,13.81,8.95,30.94,23.21,50,26,25.86,3.77,47.76-27.09,41-53-4.89-18.75-16.77-21.33-33-29,.06-1.21,6.24-8.55,6-20h26c1.46-5,.12-5,6-6,1-2,5.76-17.44,4-21l-6-4s1.13-57.91,3-71q6-95,12-190l34-29C638,56.26,639.6,19,628,3.62Zm-121,352c.33,1.33.67,2.66,1,4h-1Zm5-6c-.41,8.7-4.51,29.29-1,42-.33.66-.67,1.33-1,2l-4-1c4-14.66,4.12-37.17,2-52l12-2h4c.33,1.33.67,2.66,1,4A19.45,19.45,0,0,1,512,349.62Zm65-311c-8.79,3.2-14.63,4.34-19,12v1c8-1.63,7.59-3.11,18-3l-3,42-18-10c-11.89-20.15,2-58.93,23-63Q577.5,28.1,577,38.62Zm16,50,6-77,20,2c3.23,6,2.94,15.11,3,25C622.16,67,614.78,81,593,88.62Z" /></g></g><g id="ico-r-height_ico"><path d="M303,336.12c-1.6,0-2.91-2.47-2.91-5.5v-11c0-3,1.31-5.5,2.91-5.5h32v-44H303c-1.6,0-2.91-2.47-2.91-5.5v-11c0-3,1.31-5.5,2.91-5.5h32v-44H303c-1.6,0-2.91-2.47-2.91-5.5v-11c0-3,1.31-5.5,2.91-5.5h32v-44H303c-1.6,0-2.91-2.47-2.91-5.5v-11c0-3,1.31-5.5,2.91-5.5h32v-44c0-12.15-5.21-22-11.62-22H253.62c-6.41,0-11.62,9.85-11.62,22v308c0,12.14,5.21,22,11.62,22h69.76c6.41,0,11.62-9.86,11.62-22v-44Z" /></g></g></symbol><symbol viewBox="0 0 635.89 496.93" id="ico-r-money"><defs><style>#ico-r-money .cls-1{isolation:isolate;}#ico-r-money .cls-2{fill-rule:evenodd;}</style></defs><title>ico-r-money_1</title><g id="ico-r-money_Слой_2" data-name="Слой 2"><g id="ico-r-money_Изображение_2" data-name="Изображение 2" class="cls-1"><g id="ico-r-money_Изображение_2-2" data-name="Изображение 2"><path class="cls-2" d="M628,3.62c-29.25-7.88-64.73-3.19-79,17-19.38,27.41-2.93,68.2,21,77,6.83,12,.74,52.19-2,69q-3.5,62.49-7,125c-4.64,14.12-11.53,30.46-15,47l-8,7-1-1c2-4.68,2-5.32,7-7q-.5-7-1-14c-3-3.84-6.78-4.36-14-4q.5-9.51,1-19c-15.92-2.84-30.73-9-45-5-2.8,6.16.39,13.87-1,19-2.82,2.63-16.51,4.09-20,5-11.59,19-33.76,83.58-38,107l-256-20c-24.61-.54-79.2-12.87-98-2-3.34,2.23-3.15,3.3-3,9,6.71,1.52,12.28,3.1,14,10l4,4v1c-29.29-.37-57.78-6.12-84,0l-3,8c4.28,6.14,23.1,19,31,16,9,2,7.81,11.86,17,14l15-3,14,6c10.47,2.13,22.26-4,30-6l63,5,158,15c44.29,7.87,97.39,13.56,142,13,4-10.47,10.48-12.59,13-26,13.81,8.95,30.94,23.21,50,26,25.86,3.77,47.76-27.09,41-53-4.89-18.75-16.77-21.33-33-29,.06-1.21,6.24-8.55,6-20h26c1.46-5,.12-5,6-6,1-2,5.76-17.44,4-21l-6-4s1.13-57.91,3-71q6-95,12-190l34-29C638,56.26,639.6,19,628,3.62Zm-121,352c.33,1.33.67,2.66,1,4h-1Zm5-6c-.41,8.7-4.51,29.29-1,42-.33.66-.67,1.33-1,2l-4-1c4-14.66,4.12-37.17,2-52l12-2h4c.33,1.33.67,2.66,1,4A19.45,19.45,0,0,1,512,349.62Zm65-311c-8.79,3.2-14.63,4.34-19,12v1c8-1.63,7.59-3.11,18-3l-3,42-18-10c-11.89-20.15,2-58.93,23-63Q577.5,28.1,577,38.62Zm16,50,6-77,20,2c3.23,6,2.94,15.11,3,25C622.16,67,614.78,81,593,88.62Z" /></g></g><g id="ico-r-money_Слой_14" data-name="Слой 14"><path d="M434.21,50.12H64.54A20.54,20.54,0,0,0,44,70.65V276a20.55,20.55,0,0,0,20.54,20.54H434.21A20.55,20.55,0,0,0,454.75,276V70.65A20.54,20.54,0,0,0,434.21,50.12ZM74.81,265.76V224.68a41.08,41.08,0,0,1,41.07,41.08Zm0-143.76V80.92h41.07A41.08,41.08,0,0,1,74.81,122ZM249.38,235C221,235,198,207.36,198,173.34s23-61.61,51.35-61.61,51.34,27.58,51.34,61.61S277.72,235,249.38,235Zm174.56,30.81H382.87a41.08,41.08,0,0,1,41.07-41.08Zm0-143.76a41.08,41.08,0,0,1-41.07-41.08h41.07Z" /></g></g></symbol><symbol viewBox="0 0 635.89 496.93" id="ico-r-w"><defs><style>#ico-r-w .cls-1{isolation:isolate;}#ico-r-w .cls-2{fill-rule:evenodd;}</style></defs><title>ico-r-w</title><g id="ico-r-w_Слой_2" data-name="Слой 2"><g id="ico-r-w_Изображение_2" data-name="Изображение 2" class="cls-1"><g id="ico-r-w_Изображение_2-2" data-name="Изображение 2"><path class="cls-2" d="M628,3.62c-29.25-7.88-64.73-3.19-79,17-19.38,27.41-2.93,68.2,21,77,6.83,12,.74,52.19-2,69q-3.5,62.49-7,125c-4.64,14.12-11.53,30.46-15,47l-8,7-1-1c2-4.68,2-5.32,7-7q-.5-7-1-14c-3-3.84-6.78-4.36-14-4q.5-9.51,1-19c-15.92-2.84-30.73-9-45-5-2.8,6.16.39,13.87-1,19-2.82,2.63-16.51,4.09-20,5-11.59,19-33.76,83.58-38,107l-256-20c-24.61-.54-79.2-12.87-98-2-3.34,2.23-3.15,3.3-3,9,6.71,1.52,12.28,3.1,14,10l4,4v1c-29.29-.37-57.78-6.12-84,0l-3,8c4.28,6.14,23.1,19,31,16,9,2,7.81,11.86,17,14l15-3,14,6c10.47,2.13,22.26-4,30-6l63,5,158,15c44.29,7.87,97.39,13.56,142,13,4-10.47,10.48-12.59,13-26,13.81,8.95,30.94,23.21,50,26,25.86,3.77,47.76-27.09,41-53-4.89-18.75-16.77-21.33-33-29,.06-1.21,6.24-8.55,6-20h26c1.46-5,.12-5,6-6,1-2,5.76-17.44,4-21l-6-4s1.13-57.91,3-71q6-95,12-190l34-29C638,56.26,639.6,19,628,3.62Zm-121,352c.33,1.33.67,2.66,1,4h-1Zm5-6c-.41,8.7-4.51,29.29-1,42-.33.66-.67,1.33-1,2l-4-1c4-14.66,4.12-37.17,2-52l12-2h4c.33,1.33.67,2.66,1,4A19.45,19.45,0,0,1,512,349.62Zm65-311c-8.79,3.2-14.63,4.34-19,12v1c8-1.63,7.59-3.11,18-3l-3,42-18-10c-11.89-20.15,2-58.93,23-63Q577.5,28.1,577,38.62Zm16,50,6-77,20,2c3.23,6,2.94,15.11,3,25C622.16,67,614.78,81,593,88.62Z" /></g></g><g id="ico-r-w_w"><path d="M212.71,179.73l2.7,19.07,3.33-19.07L240,94.83h14.65l21.16,84.9,3.57,20.92,3.32-20.92,14.77-84.9h20.18L289.37,228h-18l-20.79-81.58-3.45-20.67-3.32,20.67L223.29,228h-18L177,94.83H197.2Z" /></g><g id="ico-r-w_Изображение_5" data-name="Изображение 5" class="cls-1"><g id="ico-r-w_Изображение_5-2" data-name="Изображение 5"><polygon class="cls-2" points="450 277.62 350 252.62 350 272.62 145 272.62 145 252.62 45 277.62 145 302.62 145 282.62 350 282.62 350 302.62 450 277.62" /></g></g></g></symbol><symbol viewBox="0 0 635.89 496.93" id="ico-r-weight"><defs><style>#ico-r-weight .cls-1{isolation:isolate;}#ico-r-weight .cls-2{fill-rule:evenodd;}#ico-r-weight .cls-3{fill:#fff;}</style></defs><title>ico-r-weight</title><g id="ico-r-weight_Слой_2" data-name="Слой 2"><g id="ico-r-weight_ico-r" class="cls-1"><g id="ico-r-weight_Изображение_2" data-name="Изображение 2"><path class="cls-2" d="M628,3.62c-29.25-7.88-64.73-3.19-79,17-19.38,27.41-2.93,68.2,21,77,6.83,12,.74,52.19-2,69q-3.5,62.49-7,125c-4.64,14.12-11.53,30.46-15,47l-8,7-1-1c2-4.68,2-5.32,7-7q-.5-7-1-14c-3-3.84-6.78-4.36-14-4q.5-9.51,1-19c-15.92-2.84-30.73-9-45-5-2.8,6.16.39,13.87-1,19-2.82,2.63-16.51,4.09-20,5-11.59,19-33.76,83.58-38,107l-256-20c-24.61-.54-79.2-12.87-98-2-3.34,2.23-3.15,3.3-3,9,6.71,1.52,12.28,3.1,14,10l4,4v1c-29.29-.37-57.78-6.12-84,0l-3,8c4.28,6.14,23.1,19,31,16,9,2,7.81,11.86,17,14l15-3,14,6c10.47,2.13,22.26-4,30-6l63,5,158,15c44.29,7.87,97.39,13.56,142,13,4-10.47,10.48-12.59,13-26,13.81,8.95,30.94,23.21,50,26,25.86,3.77,47.76-27.09,41-53-4.89-18.75-16.77-21.33-33-29,.06-1.21,6.24-8.55,6-20h26c1.46-5,.12-5,6-6,1-2,5.76-17.44,4-21l-6-4s1.13-57.91,3-71q6-95,12-190l34-29C638,56.26,639.6,19,628,3.62Zm-121,352c.33,1.33.67,2.66,1,4h-1Zm5-6c-.41,8.7-4.51,29.29-1,42-.33.66-.67,1.33-1,2l-4-1c4-14.66,4.12-37.17,2-52l12-2h4c.33,1.33.67,2.66,1,4A19.45,19.45,0,0,1,512,349.62Zm65-311c-8.79,3.2-14.63,4.34-19,12v1c8-1.63,7.59-3.11,18-3l-3,42-18-10c-11.89-20.15,2-58.93,23-63Q577.5,28.1,577,38.62Zm16,50,6-77,20,2c3.23,6,2.94,15.11,3,25C622.16,67,614.78,81,593,88.62Z" /></g></g><g id="ico-r-weight_weight"><g id="ico-r-weight_w"><path d="M389.59,358.6q3.56,12.7-3.82,23.13t-19.56,10.42H154.75q-12.19,0-19.57-10.42t-3.81-23.13l37.11-148.43a17.58,17.58,0,0,1,5.84-9.65,15.17,15.17,0,0,1,9.91-3.56h30.5a46.1,46.1,0,0,1-3-16.27A48.88,48.88,0,0,1,295,146.13a47.06,47.06,0,0,1,14.24,34.56,49,49,0,0,1-3,16.27h30.49a15.2,15.2,0,0,1,9.92,3.56,17.64,17.64,0,0,1,5.84,9.65ZM260.48,197A16.5,16.5,0,1,0,249,192.13,15.65,15.65,0,0,0,260.48,197Z" /></g><g id="ico-r-weight_kg"><path class="cls-3" d="M189.31,253.79h19v37.5h.38c1.89-3.27,3.9-6.29,5.79-9.31l19.25-28.19h23.54L229.2,289.91l29.58,48.71h-22.4L215.61,302l-7.3,8.94v27.69h-19Z" /><path class="cls-3" d="M333.29,334.71A94.75,94.75,0,0,1,305,339.5c-15.48,0-26.68-3.91-34.49-11.46-7.8-7.3-12.08-18.37-12-30.83.12-28.19,20.64-44.3,48.45-44.3,10.95,0,19.38,2.14,23.54,4.15l-4,15.36c-4.66-2-10.45-3.65-19.76-3.65-16,0-28.06,9.06-28.06,27.43,0,17.5,10.94,27.82,26.68,27.82,4.4,0,7.93-.51,9.44-1.26V305H301.7V290h31.59Z" /></g></g></g></symbol><symbol viewBox="0 0 635.89 496.93" id="ico-r-width"><defs><style>#ico-r-width .cls-1{isolation:isolate;}#ico-r-width .cls-2{fill-rule:evenodd;}</style></defs><title>ico-r-width_1</title><g id="ico-r-width_Слой_2" data-name="Слой 2"><g id="ico-r-width_ico-r" class="cls-1"><g id="ico-r-width_Изображение_2" data-name="Изображение 2"><path class="cls-2" d="M628,3.62c-29.25-7.88-64.73-3.19-79,17-19.38,27.41-2.93,68.2,21,77,6.83,12,.74,52.19-2,69q-3.5,62.49-7,125c-4.64,14.12-11.53,30.46-15,47l-8,7-1-1c2-4.68,2-5.32,7-7q-.5-7-1-14c-3-3.84-6.78-4.36-14-4q.5-9.51,1-19c-15.92-2.84-30.73-9-45-5-2.8,6.16.39,13.87-1,19-2.82,2.63-16.51,4.09-20,5-11.59,19-33.76,83.58-38,107l-256-20c-24.61-.54-79.2-12.87-98-2-3.34,2.23-3.15,3.3-3,9,6.71,1.52,12.28,3.1,14,10l4,4v1c-29.29-.37-57.78-6.12-84,0l-3,8c4.28,6.14,23.1,19,31,16,9,2,7.81,11.86,17,14l15-3,14,6c10.47,2.13,22.26-4,30-6l63,5,158,15c44.29,7.87,97.39,13.56,142,13,4-10.47,10.48-12.59,13-26,13.81,8.95,30.94,23.21,50,26,25.86,3.77,47.76-27.09,41-53-4.89-18.75-16.77-21.33-33-29,.06-1.21,6.24-8.55,6-20h26c1.46-5,.12-5,6-6,1-2,5.76-17.44,4-21l-6-4s1.13-57.91,3-71q6-95,12-190l34-29C638,56.26,639.6,19,628,3.62Zm-121,352c.33,1.33.67,2.66,1,4h-1Zm5-6c-.41,8.7-4.51,29.29-1,42-.33.66-.67,1.33-1,2l-4-1c4-14.66,4.12-37.17,2-52l12-2h4c.33,1.33.67,2.66,1,4A19.45,19.45,0,0,1,512,349.62Zm65-311c-8.79,3.2-14.63,4.34-19,12v1c8-1.63,7.59-3.11,18-3l-3,42-18-10c-11.89-20.15,2-58.93,23-63Q577.5,28.1,577,38.62Zm16,50,6-77,20,2c3.23,6,2.94,15.11,3,25C622.16,67,614.78,81,593,88.62Z" /></g></g><g id="ico-r-width_ico"><path d="M441,180.62H403.69v34.2c0,1.72-2.79,3.11-6.22,3.11H385c-3.43,0-6.22-1.39-6.22-3.11v-34.2H329.06v34.2c0,1.72-2.78,3.11-6.22,3.11H310.41c-3.44,0-6.22-1.39-6.22-3.11v-34.2H254.44v34.2c0,1.72-2.79,3.11-6.22,3.11H235.78c-3.43,0-6.22-1.39-6.22-3.11v-34.2H179.81v34.2c0,1.72-2.78,3.11-6.22,3.11H161.16c-3.44,0-6.22-1.39-6.22-3.11v-34.2H105.19v34.2c0,1.72-2.79,3.11-6.22,3.11H86.53c-3.43,0-6.22-1.39-6.22-3.11v-34.2H43c-13.74,0-24.87,5.56-24.87,12.43v74.63c0,6.87,11.13,12.44,24.87,12.44H441c13.74,0,24.87-5.57,24.87-12.44V193.05C465.87,186.18,454.74,180.62,441,180.62Z" /></g></g></symbol><symbol viewBox="0 0 328.88 505.56" id="ico-s"><defs><style>#ico-s .cls-1{isolation:isolate;}#ico-s .cls-2{fill-rule:evenodd;}</style></defs><title>ico-s</title><g id="ico-s_Слой_2" data-name="Слой 2"><g id="ico-s_Изображение_2" data-name="Изображение 2" class="cls-1"><g id="ico-s_Изображение_2-2" data-name="Изображение 2"><path class="cls-2" d="M328.88,236.64v-1.27c-15.69-2.11-35.92-1.12-51.23,1.27l-25.83,1.28c-8.59,1.35-19.37,2.44-28.37,1.27l-.43-.85,45.31-5.51.42-.84c-6.1-2.51-19-1-25.4,0l-49.12,2.54-.42-8.47-3.81-.85q-.42-28.78-.85-57.58l3,.42-.42-18.63H171.37c-.14-2.4-.29-4.8-.43-7.2l-9.74-.85q-1.26-70.49-2.54-141c-.71-.62-23.94-.46-27.1.43l-3,2.54L111.66,5.88C95.57,10,78.85,11.73,63.82,13.5c-.14,1.84-.28,3.67-.43,5.51L54.5,20.28v19.9h8.89l2.12,1.69c-.64,3.89.89,10.59.42,14.4-3.08,25,0,52.36,0,77.48-43.62-2.28-34.41,13.87-41.07,48.7-3.48,18.22-5,42.18,12.28,45.73C43.65,253,39.6,261.19,63,270.1c.56,3.38,1.13,6.77,1.69,10.16,8.39,30.63,6.61,81.89,6.36,119.4-4.61-1.63-10.31-8.33-16.94-6.35-1.49.82-1.66,1.08-2.12,3,1.8,3.5,3.77,5.7,8,6.77v1.69L34.18,406c0-6.69-1.83-9.34-2.54-13.55l6.35,1.7v-.43c-3.57-4.39-13.68-2.05-19.9-3.81l-3,1.27c.14.43.29.85.43,1.27,3.16.62,6.69-2.46,8,2.55l-1.69.42v.42c-.09.2-.24,27.13.42,28.37l3,2.12-8,1.69c-.42,1.7-.85,3.39-1.27,5.08-18.91,1.91-21.38,30.28-5.5,37.26,17.07,7.51,35.62-11.27,25.82-27.09,3.14-4,4.5-5.56,4.24-13.55-2-2.26-4.41-3.52-8.89-3.39,1.06-2.71,17.73-5.4,22.86-3l14,11.86c2.52,2.8.56,19,.43,23.71l12.7,4.66.42,1.27c-11.53,13.75-9.49,35.94,9.74,40.22,15.84,3.53,25-13.66,24.56-28.36l27.1,11c6.34-6.09,21.42-3,30.91-5.92,11.13-3.49,26.12-3.26,38.11-5.51,23-4.32,48.79-6.4,70.71-11,7.63-1.6,21.3,4.76,25,3,2-1,2.63-3.91,4.24-5.08,2.89-2.12,5.37-.06,7.19-3.39,1.34-1.75,1-6.64.85-9.74-14.06-4.38-29.71.51-43.61,3-25.91,4.57-49,4.76-74.52,9.74-8.44,1.65-32,6.47-36,5.08-2.37-2.39-1.41-14.24-1.27-17.36l54.62-7.62V445l7.2-.42c3.1.58,5.56,2.12,10.16,2.11a20.52,20.52,0,0,1,10.16-5.93c1.47-2.52,1.86-5.79,1.69-10.16-4.88-2.67-12.22-.53-18.63-1.27l-64.36,8.47c-2.14-3-1.69-44.09-1.69-51.66q-.85-66.47-1.7-133c14.82-4,32.58-1.55,50-4.24C251.8,242.83,293.45,246.38,328.88,236.64ZM44.76,229.87H54.5l7.2,34.3C53.92,259.56,39.22,242.3,44.76,229.87ZM33.33,219.28c-9-6.43-.49-44.85,1.27-57.16.7-4.91-.34-12,2.12-16.51l9.31-7.2,18.21,2.12c3.21,2.53,1.69,17.11,1.69,22.44q.64,29,1.27,58C55.63,217.57,43.17,226.3,33.33,219.28ZM98.11,373.41l-.84-87.65L103.2,287,104,356.9q-3,7.83-5.93,15.66Zm4.24,20.75L99,387.38c-2.85-7.92,3.5-18.08,5.08-23.28q.42,19.68.85,39.37C103.1,401.35,103.19,397.21,102.35,394.16Zm1.27-133.8a128,128,0,0,1-.85,13.55c-2,.4-3.56-.88-5.08.42L96,273.91c-1.16-8.94-.14-17.22-.85-25.83,2.64-.7,7.14-.84,9.32-2.12H107l.42,12.7C106.42,259.63,105.19,259.88,103.62,260.36ZM93.46,117.24c-3.46-13-.26-35-.43-49.54-.11-10.06-3.25-23.05-.42-32.18,4.53-4.26,23.89-2.41,30.91-5.08h5.08c2.68,5.91.14,15.63,1.27,22.86l.42,68.6c-7.11-4.33-12-6.66-21.17-2.54C107.55,120.36,98.71,117.32,93.46,117.24ZM129,167.63c0,21.2.92,38,.85,54.62-4.54.12-10.67.61-13.12-1.27-2.62-2-1.7-9.53-1.7-14v-39Zm-14-24.14c6.54.31,8.16-.68,11.86-3.81v9.74l-11.44.42Zm.42,103.74c2.5-3.33,12.55-2.19,17.37-2.12v32.61l-14-.85v-14C117.66,258.67,111.34,253.28,115.47,247.23Zm7.63,180h-.43l2.54-4.66-3.38-3.39q-1.27-64.56-2.54-129.14l13.55,1.27q1.26,65.84,2.54,131.68C131.9,425.52,128.25,425.94,123.1,427.19Zm86.8,49.11v.43l-1.7-.43ZM182.38,223.94v1.27l-10.17-.84-.84-1.27.42-55.47,11,.42Z" /></g></g></g></symbol></defs><use id="ico-h-height-usage" xlink:href="#ico-h-height" class="sprite-symbol-usage" /><use id="ico-h-money-usage" xlink:href="#ico-h-money" class="sprite-symbol-usage" /><use id="ico-h-weight-usage" xlink:href="#ico-h-weight" class="sprite-symbol-usage" /><use id="ico-h-width-usage" xlink:href="#ico-h-width" class="sprite-symbol-usage" /><use id="ico-money-usage" xlink:href="#ico-money" class="sprite-symbol-usage" /><use id="ico-r-usage" xlink:href="#ico-r" class="sprite-symbol-usage" /><use id="ico-r-h-usage" xlink:href="#ico-r-h" class="sprite-symbol-usage" /><use id="ico-r-height-usage" xlink:href="#ico-r-height" class="sprite-symbol-usage" /><use id="ico-r-money-usage" xlink:href="#ico-r-money" class="sprite-symbol-usage" /><use id="ico-r-w-usage" xlink:href="#ico-r-w" class="sprite-symbol-usage" /><use id="ico-r-weight-usage" xlink:href="#ico-r-weight" class="sprite-symbol-usage" /><use id="ico-r-width-usage" xlink:href="#ico-r-width" class="sprite-symbol-usage" /><use id="ico-s-usage" xlink:href="#ico-s" class="sprite-symbol-usage" /></svg>