<svg xmlns="http://www.w3.org/2000/svg" viewBox="0 0 561.86 337.11"><title>ico-money</title><g id="Слой_2" data-name="Слой 2"><g id="Слой_14" data-name="Слой 14"><path d="M533.76,0H28.09A28.09,28.09,0,0,0,0,28.09V309a28.09,28.09,0,0,0,28.09,28.09H533.76A28.1,28.1,0,0,0,561.86,309V28.09A28.1,28.1,0,0,0,533.76,0ZM42.14,295V238.79A56.19,56.19,0,0,1,98.33,295Zm0-196.65V42.14H98.33A56.19,56.19,0,0,1,42.14,98.33ZM280.93,252.84c-38.8,0-70.23-37.75-70.23-84.28s31.44-84.28,70.23-84.28,70.23,37.73,70.23,84.28S319.71,252.84,280.93,252.84ZM519.72,295H463.53a56.18,56.18,0,0,1,56.19-56.19Zm0-196.65a56.19,56.19,0,0,1-56.19-56.19h56.19Z"/></g></g></svg>