<svg xmlns="http://www.w3.org/2000/svg" viewBox="0 0 635.89 497.32"><defs><style>.cls-1{isolation:isolate;}.cls-2{fill-rule:evenodd;}</style></defs><title>ico-r-h</title><g id="Слой_2" data-name="Слой 2"><g id="Изображение_2" data-name="Изображение 2" class="cls-1"><g id="Изображение_2-2" data-name="Изображение 2"><path class="cls-2" d="M628,4C598.75-3.87,563.27.81,549,21c-19.38,27.42-2.93,68.2,21,77,6.83,12,.74,52.19-2,69q-3.5,62.49-7,125c-4.64,14.13-11.53,30.47-15,47l-8,7-1-1c2-4.67,2-5.31,7-7q-.5-7-1-14c-3-3.83-6.78-4.36-14-4q.5-9.5,1-19c-15.92-2.83-30.73-9-45-5-2.8,6.17.39,13.87-1,19-2.82,2.63-16.51,4.09-20,5-11.59,19-33.76,83.59-38,107L170,407c-24.61-.54-79.2-12.86-98-2-3.34,2.23-3.15,3.31-3,9,6.71,1.53,12.28,3.1,14,10l4,4v1c-29.29-.36-57.78-6.12-84,0l-3,8c4.28,6.15,23.1,19,31,16,9,2,7.81,11.87,17,14l15-3,14,6c10.47,2.14,22.26-4,30-6l63,5,158,15c44.29,7.87,97.39,13.56,142,13,4-10.47,10.48-12.59,13-26,13.81,8.95,30.94,23.22,50,26,25.86,3.78,47.76-27.09,41-53-4.89-18.74-16.77-21.33-33-29,.06-1.21,6.24-8.54,6-20h26c1.46-5,.12-5,6-6,1-2,5.76-17.44,4-21l-6-4s1.13-57.9,3-71l12-190,34-29C638,56.64,639.6,19.35,628,4ZM507,356c.33,1.33.67,2.67,1,4h-1Zm5-6c-.41,8.7-4.51,29.3-1,42-.33.67-.67,1.33-1,2l-4-1c4-14.65,4.12-37.16,2-52l12-2h4l1,4A19.37,19.37,0,0,1,512,350ZM577,39c-8.79,3.21-14.63,4.34-19,12v1c8-1.63,7.59-3.1,18-3l-3,42L555,81c-11.89-20.14,2-58.92,23-63Q577.5,28.5,577,39Zm16,50,6-77,20,2c3.23,6,2.94,15.11,3,25C622.16,67.41,614.78,81.41,593,89Z"/></g></g><g id="h"><path d="M280,179.74a51.7,51.7,0,0,1,17.6-16.3,48.22,48.22,0,0,1,23.5-6,56.87,56.87,0,0,1,19,3,36.35,36.35,0,0,1,14.58,9.41,43,43,0,0,1,9.29,16.18,73.68,73.68,0,0,1,3.26,23.19v83.8H344.43V209q0-16.36-7.82-24.36t-22.33-7.88a37.87,37.87,0,0,0-19.87,5.35A42.82,42.82,0,0,0,280,196.35v96.72H257.19v-189H280Z"/></g><g id="Изображение_7" data-name="Изображение 7" class="cls-1"><g id="Изображение_7-2" data-name="Изображение 7"><polygon class="cls-2" points="123.49 280.2 146.81 280.55 149.23 116.29 125.91 115.95 156.41 1.56 183.51 116.79 160.19 116.45 157.77 280.71 181.09 281.05 150.59 395.44 123.49 280.2"/><path d="M156.38,3.12,183,116.41l-22.45-.33h-.76l0,.76-2.41,163.49v.76h.76l22.46.33-30,112.46L124,280.59l22.45.33h.76l0-.76,2.41-163.49v-.76h-.76l-22.46-.33,30-112.46M156.43,0l-31,116.32,23.43.35-2.41,163.49L123,279.82,150.57,397l31-116.32-23.43-.35,2.41-163.49,23.43.34L156.43,0Z"/></g></g></g></svg>