<svg xmlns="http://www.w3.org/2000/svg" viewBox="0 0 635.89 496.93"><defs><style>.cls-1{isolation:isolate;}.cls-2{fill-rule:evenodd;}.cls-3{fill:#fff;}</style></defs><title>ico-r-weight</title><g id="Слой_2" data-name="Слой 2"><g id="ico-r" class="cls-1"><g id="Изображение_2" data-name="Изображение 2"><path class="cls-2" d="M628,3.62c-29.25-7.88-64.73-3.19-79,17-19.38,27.41-2.93,68.2,21,77,6.83,12,.74,52.19-2,69q-3.5,62.49-7,125c-4.64,14.12-11.53,30.46-15,47l-8,7-1-1c2-4.68,2-5.32,7-7q-.5-7-1-14c-3-3.84-6.78-4.36-14-4q.5-9.51,1-19c-15.92-2.84-30.73-9-45-5-2.8,6.16.39,13.87-1,19-2.82,2.63-16.51,4.09-20,5-11.59,19-33.76,83.58-38,107l-256-20c-24.61-.54-79.2-12.87-98-2-3.34,2.23-3.15,3.3-3,9,6.71,1.52,12.28,3.1,14,10l4,4v1c-29.29-.37-57.78-6.12-84,0l-3,8c4.28,6.14,23.1,19,31,16,9,2,7.81,11.86,17,14l15-3,14,6c10.47,2.13,22.26-4,30-6l63,5,158,15c44.29,7.87,97.39,13.56,142,13,4-10.47,10.48-12.59,13-26,13.81,8.95,30.94,23.21,50,26,25.86,3.77,47.76-27.09,41-53-4.89-18.75-16.77-21.33-33-29,.06-1.21,6.24-8.55,6-20h26c1.46-5,.12-5,6-6,1-2,5.76-17.44,4-21l-6-4s1.13-57.91,3-71q6-95,12-190l34-29C638,56.26,639.6,19,628,3.62Zm-121,352c.33,1.33.67,2.66,1,4h-1Zm5-6c-.41,8.7-4.51,29.29-1,42-.33.66-.67,1.33-1,2l-4-1c4-14.66,4.12-37.17,2-52l12-2h4c.33,1.33.67,2.66,1,4A19.45,19.45,0,0,1,512,349.62Zm65-311c-8.79,3.2-14.63,4.34-19,12v1c8-1.63,7.59-3.11,18-3l-3,42-18-10c-11.89-20.15,2-58.93,23-63Q577.5,28.1,577,38.62Zm16,50,6-77,20,2c3.23,6,2.94,15.11,3,25C622.16,67,614.78,81,593,88.62Z"/></g></g><g id="weight"><g id="w"><path d="M389.59,358.6q3.56,12.7-3.82,23.13t-19.56,10.42H154.75q-12.19,0-19.57-10.42t-3.81-23.13l37.11-148.43a17.58,17.58,0,0,1,5.84-9.65,15.17,15.17,0,0,1,9.91-3.56h30.5a46.1,46.1,0,0,1-3-16.27A48.88,48.88,0,0,1,295,146.13a47.06,47.06,0,0,1,14.24,34.56,49,49,0,0,1-3,16.27h30.49a15.2,15.2,0,0,1,9.92,3.56,17.64,17.64,0,0,1,5.84,9.65ZM260.48,197A16.5,16.5,0,1,0,249,192.13,15.65,15.65,0,0,0,260.48,197Z"/></g><g id="kg"><path class="cls-3" d="M189.31,253.79h19v37.5h.38c1.89-3.27,3.9-6.29,5.79-9.31l19.25-28.19h23.54L229.2,289.91l29.58,48.71h-22.4L215.61,302l-7.3,8.94v27.69h-19Z"/><path class="cls-3" d="M333.29,334.71A94.75,94.75,0,0,1,305,339.5c-15.48,0-26.68-3.91-34.49-11.46-7.8-7.3-12.08-18.37-12-30.83.12-28.19,20.64-44.3,48.45-44.3,10.95,0,19.38,2.14,23.54,4.15l-4,15.36c-4.66-2-10.45-3.65-19.76-3.65-16,0-28.06,9.06-28.06,27.43,0,17.5,10.94,27.82,26.68,27.82,4.4,0,7.93-.51,9.44-1.26V305H301.7V290h31.59Z"/></g></g></g></svg>