<svg xmlns="http://www.w3.org/2000/svg" viewBox="0 0 635.89 496.93"><defs><style>.cls-1{isolation:isolate;}.cls-2{fill-rule:evenodd;}.cls-3{fill:#fbfbfb;}</style></defs><title>ico-r-kg</title><g id="Слой_2" data-name="Слой 2"><g id="Изображение_2" data-name="Изображение 2" class="cls-1"><g id="Изображение_2-2" data-name="Изображение 2"><path class="cls-2" d="M628,3.62c-29.25-7.88-64.73-3.19-79,17-19.38,27.41-2.93,68.2,21,77,6.83,12,.74,52.19-2,69q-3.5,62.49-7,125c-4.64,14.12-11.53,30.46-15,47l-8,7-1-1c2-4.68,2-5.32,7-7q-.5-7-1-14c-3-3.84-6.78-4.36-14-4q.5-9.51,1-19c-15.92-2.84-30.73-9-45-5-2.8,6.16.39,13.87-1,19-2.82,2.63-16.51,4.09-20,5-11.59,19-33.76,83.58-38,107l-256-20c-24.61-.54-79.2-12.87-98-2-3.34,2.23-3.15,3.3-3,9,6.71,1.52,12.28,3.1,14,10l4,4v1c-29.29-.37-57.78-6.12-84,0l-3,8c4.28,6.14,23.1,19,31,16,9,2,7.81,11.86,17,14l15-3,14,6c10.47,2.13,22.26-4,30-6l63,5,158,15c44.29,7.87,97.39,13.56,142,13,4-10.47,10.48-12.59,13-26,13.81,8.95,30.94,23.21,50,26,25.86,3.77,47.76-27.09,41-53-4.89-18.75-16.77-21.33-33-29,.06-1.21,6.24-8.55,6-20h26c1.46-5,.12-5,6-6,1-2,5.76-17.44,4-21l-6-4s1.13-57.91,3-71q6-95,12-190l34-29C638,56.26,639.6,19,628,3.62Zm-121,352c.33,1.33.67,2.66,1,4h-1Zm5-6c-.41,8.7-4.51,29.29-1,42-.33.66-.67,1.33-1,2l-4-1c4-14.66,4.12-37.17,2-52l12-2h4c.33,1.33.67,2.66,1,4A19.45,19.45,0,0,1,512,349.62Zm65-311c-8.79,3.2-14.63,4.34-19,12v1c8-1.63,7.59-3.11,18-3l-3,42-18-10c-11.89-20.15,2-58.93,23-63Q577.5,28.1,577,38.62Zm16,50,6-77,20,2c3.23,6,2.94,15.11,3,25C622.16,67,614.78,81,593,88.62Z"/></g></g><g id="Изображение_8" data-name="Изображение 8" class="cls-1"><g id="Изображение_8-2" data-name="Изображение 8"><path class="cls-2" d="M272.31,383.27h0c-7.59,0-15.56-.16-23.67-.48-46.67-1.85-84.82-8.4-113.39-19.47S87,336.4,76.48,316.16C66.21,296.31,64.6,271.68,71.69,243s23.12-62.46,47.61-100.13C167.59,68.59,215,31,260.07,31,283.7,31,307.23,41.27,330,61.63s45.55,51.42,67.54,92.21c21,39,34.1,73.46,38.92,102.47s1.5,53.27-9.84,72.26C405,364.87,353,383.27,272.31,383.27Z"/><path d="M260.07,31.29c23.54,0,47,10.3,69.72,30.6s45.5,51.35,67.46,92.11c21,39,34.08,73.4,38.89,102.36s1.5,53.11-9.8,72c-10.78,18.06-29.18,31.81-54.68,40.86s-59,13.68-99.36,13.68c-7.59,0-15.55-.17-23.66-.49C202,380.6,163.9,374.05,135.37,363s-48.16-26.83-58.58-47C66.56,296.23,65,271.68,72,243s23.1-62.39,47.57-100c24.14-37.11,48.21-65.32,71.55-83.86s46.47-27.86,68.93-27.86m0-.69q-68.19,0-141,112Q-30.23,372.1,248.61,383.13q12.24.48,23.69.49,249.48,0,125.56-229.94Q331.54,30.6,260.07,30.6Z"/></g></g><g id="kg"><path class="cls-3" d="M179.11,254.75l-16.74,16.12v46H139.49v-189h22.88V243.55l14.89-16,43.68-43.8h27.69l-53.9,55.49,62.14,77.65H228Z"/><path class="cls-3" d="M286.28,249.21a97.88,97.88,0,0,1,3.63-27.38,64.55,64.55,0,0,1,10.52-21.47,49.19,49.19,0,0,1,16.74-14,48.14,48.14,0,0,1,22.27-5A50.25,50.25,0,0,1,361,185.66a43.4,43.4,0,0,1,15.81,12.61L378,183.75h20.67V314.06a62,62,0,0,1-4.12,23.37,48.15,48.15,0,0,1-29.35,28.18,67.66,67.66,0,0,1-22.88,3.69,68.81,68.81,0,0,1-11.81-1.17A72.2,72.2,0,0,1,317,364.32a62,62,0,0,1-13.16-7.07,43.8,43.8,0,0,1-10.89-11l11.81-13.65a58.75,58.75,0,0,0,8.61,8.55,44.84,44.84,0,0,0,9,5.6,41.55,41.55,0,0,0,9.11,3,45.32,45.32,0,0,0,9.1.92,43.42,43.42,0,0,0,14.65-2.33,30.45,30.45,0,0,0,11.13-6.83,29.65,29.65,0,0,0,7.08-11.14,43.81,43.81,0,0,0,2.46-15.26V303.72a44.43,44.43,0,0,1-15.69,11.63,51.56,51.56,0,0,1-21,4,46.69,46.69,0,0,1-22-5.17,49.33,49.33,0,0,1-16.68-14.27A67.7,67.7,0,0,1,290,278.43a92.72,92.72,0,0,1-3.69-26.64Zm22.77,2.58a80.9,80.9,0,0,0,2,18.46,47.08,47.08,0,0,0,6.39,15.38,32.48,32.48,0,0,0,11.14,10.52A32.08,32.08,0,0,0,344.85,300a37,37,0,0,0,10.65-1.42,29.91,29.91,0,0,0,8.49-4,32.8,32.8,0,0,0,6.7-6.15,43.68,43.68,0,0,0,5.17-7.87v-61a41.39,41.39,0,0,0-5.17-7.63A32,32,0,0,0,355.43,202a35.64,35.64,0,0,0-10.33-1.41,32.41,32.41,0,0,0-16.43,3.93,32.78,32.78,0,0,0-11.2,10.65,47.84,47.84,0,0,0-6.39,15.5,81.81,81.81,0,0,0-2,18.52Z"/></g></g></svg>