<svg xmlns="http://www.w3.org/2000/svg" viewBox="0 0 514.09 556.8"><defs><style>.cls-1{isolation:isolate;}.cls-2{fill-rule:evenodd;}</style></defs><title>ico-s-h</title><g id="Слой_2" data-name="Слой 2"><g id="Изображение_2" data-name="Изображение 2" class="cls-1"><g id="Изображение_2-2" data-name="Изображение 2"><path class="cls-2" d="M328.88,254.13v-1.27c-15.69-2.11-35.92-1.12-51.23,1.27l-25.83,1.27c-8.59,1.36-19.37,2.45-28.37,1.27l-.43-.84,45.31-5.51.42-.85c-6.1-2.51-19-1-25.4,0L194.23,252l-.42-8.46L190,242.7q-.42-28.78-.85-57.59l3,.43-.42-18.63H171.37c-.14-2.4-.29-4.8-.43-7.2l-9.74-.85q-1.26-70.49-2.54-141c-.71-.62-23.94-.46-27.1.42l-3,2.55-16.94,2.54C95.57,27.52,78.85,29.22,63.82,31c-.14,1.83-.28,3.67-.43,5.5L54.5,37.76v19.9h8.89l2.12,1.7c-.64,3.89.89,10.59.42,14.39-3.08,25,0,52.36,0,77.49C22.31,149,31.52,165.11,24.86,199.93c-3.48,18.22-5,42.18,12.28,45.73,6.51,24.86,2.46,33,25.83,41.92.56,3.39,1.13,6.78,1.69,10.16,8.39,30.64,6.61,81.9,6.36,119.41-4.61-1.64-10.31-8.34-16.94-6.35-1.49.82-1.66,1.08-2.12,3,1.8,3.5,3.77,5.71,8,6.78v1.69L34.18,423.5c0-6.69-1.83-9.35-2.54-13.55L38,411.64v-.42c-3.57-4.39-13.68-2.05-19.9-3.81l-3,1.27.43,1.27c3.16.61,6.69-2.46,8,2.54l-1.69.42v.43c-.09.2-.24,27.12.42,28.37l3,2.11-8,1.7L16,450.6c-18.91,1.91-21.38,30.28-5.5,37.26,17.07,7.51,35.62-11.27,25.82-27.1,3.14-4,4.5-5.55,4.24-13.55-2-2.26-4.41-3.52-8.89-3.39,1.06-2.7,17.73-5.4,22.86-3l14,11.86c2.52,2.8.56,19,.43,23.71l12.7,4.66.42,1.27c-11.53,13.75-9.49,35.94,9.74,40.22,15.84,3.53,25-13.66,24.56-28.37l27.1,11c6.34-6.1,21.42-3,30.91-5.93,11.13-3.48,26.12-3.25,38.11-5.5,23-4.32,48.79-6.4,70.71-11,7.63-1.6,21.3,4.76,25,3,2-1,2.63-3.9,4.24-5.08,2.89-2.12,5.37-.05,7.19-3.38,1.34-1.76,1-6.64.85-9.74-14.06-4.38-29.71.51-43.61,3-25.91,4.57-49,4.76-74.52,9.74-8.44,1.65-32,6.47-36,5.08-2.37-2.4-1.41-14.25-1.27-17.36l54.62-7.62v2.12l7.2-.43c3.1.59,5.56,2.13,10.16,2.12a20.45,20.45,0,0,1,10.16-5.93c1.47-2.52,1.86-5.79,1.69-10.16-4.88-2.67-12.22-.54-18.63-1.27l-64.36,8.47c-2.14-3.05-1.69-44.1-1.69-51.66q-.85-66.47-1.7-133c14.82-3.95,32.58-1.54,50-4.23C251.8,260.32,293.45,263.87,328.88,254.13ZM44.76,247.36H54.5l7.2,34.29C53.92,277.05,39.22,259.79,44.76,247.36ZM33.33,236.77c-9-6.44-.49-44.86,1.27-57.16.7-4.91-.34-12,2.12-16.51L46,155.9,64.24,158c3.21,2.54,1.69,17.12,1.69,22.45q.64,29,1.27,58C55.63,235.06,43.17,243.78,33.33,236.77ZM98.11,390.9l-.84-87.65,5.93,1.27.84,69.86q-3,7.85-5.93,15.67Zm4.24,20.74L99,404.87c-2.85-7.93,3.5-18.08,5.08-23.29q.42,19.69.85,39.38C103.1,418.83,103.19,414.7,102.35,411.64Zm1.27-133.8a127.65,127.65,0,0,1-.85,13.55c-2,.4-3.56-.87-5.08.43L96,291.39c-1.16-8.93-.14-17.22-.85-25.83,2.64-.69,7.14-.83,9.32-2.11H107l.42,12.7C106.42,277.11,105.19,277.37,103.62,277.84ZM93.46,134.73c-3.46-13-.26-35-.43-49.54-.11-10.07-3.25-23-.42-32.18,4.53-4.26,23.89-2.41,30.91-5.09h5.08c2.68,5.91.14,15.63,1.27,22.87l.42,68.59c-7.11-4.32-12-6.65-21.17-2.54C107.55,137.85,98.71,134.81,93.46,134.73ZM129,185.11c0,21.21.92,38,.85,54.62-4.54.12-10.67.61-13.12-1.27-2.62-2-1.7-9.53-1.7-14v-39Zm-14-24.13c6.54.31,8.16-.69,11.86-3.81v9.74l-11.44.42Zm.42,103.74c2.5-3.33,12.55-2.19,17.37-2.12v32.6l-14-.84v-14C117.66,276.16,111.34,270.77,115.47,264.72Zm7.63,180h-.43q1.27-2.32,2.54-4.66l-3.38-3.38q-1.27-64.58-2.54-129.15l13.55,1.27q1.26,65.83,2.54,131.69C131.9,443,128.25,443.43,123.1,444.67Zm86.8,49.12v.42l-1.7-.42ZM182.38,241.43v1.27l-10.17-.85-.84-1.27.42-55.47,11,.43Z"/></g></g><g id="Изображение_6" data-name="Изображение 6" class="cls-1"><g id="Изображение_6-2" data-name="Изображение 6"><polygon class="cls-2" points="353.76 169.41 382.56 169.41 346.56 0 310.56 169.41 339.36 169.41 339.36 387.39 310.56 387.39 346.56 556.8 382.56 387.39 353.76 387.39 353.76 169.41"/></g></g><g id="h"><path d="M426.85,259.4a51.7,51.7,0,0,1,17.6-16.3,48.44,48.44,0,0,1,23.5-6,56.87,56.87,0,0,1,19,3,36.35,36.35,0,0,1,14.58,9.41,43,43,0,0,1,9.29,16.18,73.74,73.74,0,0,1,3.26,23.2v83.79H491.33v-84q0-16.37-7.81-24.36t-22.34-7.88a38,38,0,0,0-19.87,5.35A42.75,42.75,0,0,0,426.85,276v96.71H404.09v-189h22.76Z"/></g></g></svg>