<svg xmlns="http://www.w3.org/2000/svg" viewBox="0 0 483.91 551.22"><defs><style>.cls-1{isolation:isolate;}.cls-2{fill-rule:evenodd;}.cls-3{fill:#fff;}</style></defs><title>ico-h-weight</title><g id="Слой_2" data-name="Слой 2"><g id="shtab" class="cls-1"><g id="Изображение_2" data-name="Изображение 2"><path class="cls-2" d="M328.88,282.3V281c-15.69-2.11-35.92-1.12-51.23,1.27l-25.83,1.27c-8.59,1.36-19.37,2.45-28.37,1.27L223,284l45.31-5.51.42-.84c-6.1-2.52-19-1-25.4,0l-49.12,2.54-.42-8.47-3.81-.85q-.42-28.78-.85-57.58l3,.42-.42-18.63H171.37c-.14-2.4-.29-4.8-.43-7.2L161.2,187q-1.26-70.49-2.54-141c-.71-.62-23.94-.46-27.1.43l-3,2.54-16.94,2.54c-16.09,4.15-32.81,5.85-47.84,7.62-.14,1.83-.28,3.67-.43,5.5L54.5,65.93V85.84h8.89c.71.56,1.42,1.12,2.12,1.69-.64,3.89.89,10.59.42,14.4-3.08,25,0,52.36,0,77.48-43.62-2.28-34.41,13.87-41.07,48.7-3.48,18.22-5,42.17,12.28,45.72,6.51,24.86,2.46,33,25.83,41.92.56,3.39,1.13,6.78,1.69,10.17,8.39,30.63,6.61,81.89,6.36,119.4C66.41,443.69,60.71,437,54.08,439c-1.49.82-1.66,1.08-2.12,3,1.8,3.51,3.77,5.71,8,6.78v1.69l-25.83,1.27c0-6.69-1.83-9.34-2.54-13.55l6.35,1.7v-.43c-3.57-4.39-13.68-2.05-19.9-3.81l-3,1.27c.14.43.29.85.43,1.27,3.16.62,6.69-2.46,8,2.54l-1.69.43v.42c-.09.2-.24,27.12.42,28.37l3,2.12-8,1.69L16,478.77c-18.91,1.91-21.38,30.28-5.5,37.26,17.07,7.51,35.62-11.27,25.82-27.1,3.14-4,4.5-5.55,4.24-13.55-2-2.26-4.41-3.51-8.89-3.38,1.06-2.71,17.73-5.41,22.86-3l14,11.86c2.52,2.8.56,19,.43,23.71l12.7,4.66.42,1.27c-11.53,13.75-9.49,35.94,9.74,40.22,15.84,3.53,25-13.66,24.56-28.37l27.1,11c6.34-6.09,21.42-2.95,30.91-5.92,11.13-3.49,26.12-3.26,38.11-5.51,23-4.32,48.79-6.4,70.71-11,7.63-1.6,21.3,4.76,25,3,2-1,2.63-3.91,4.24-5.09,2.89-2.11,5.37-.05,7.19-3.38,1.34-1.76,1-6.64.85-9.74-14.06-4.38-29.71.51-43.61,3-25.91,4.57-49,4.76-74.52,9.74-8.44,1.65-32,6.47-36,5.08-2.37-2.39-1.41-14.24-1.27-17.36l54.62-7.62v2.12l7.2-.43c3.1.59,5.56,2.13,10.16,2.12a20.52,20.52,0,0,1,10.16-5.93c1.47-2.52,1.86-5.79,1.69-10.16-4.88-2.67-12.22-.53-18.63-1.27l-64.36,8.47c-2.14-3.05-1.69-44.1-1.69-51.66q-.85-66.47-1.7-132.95c14.82-4,32.58-1.55,50-4.24C251.8,288.49,293.45,292,328.88,282.3ZM44.76,275.53H54.5l7.2,34.3C53.92,305.22,39.22,288,44.76,275.53ZM33.33,264.94c-9-6.43-.49-44.86,1.27-57.16.7-4.91-.34-12,2.12-16.51l9.31-7.2,18.21,2.12c3.21,2.53,1.69,17.11,1.69,22.44q.64,29,1.27,58C55.63,263.23,43.17,272,33.33,264.94ZM98.11,419.07l-.84-87.65,5.93,1.27.84,69.87q-3,7.83-5.93,15.66Zm4.24,20.75L99,433c-2.85-7.93,3.5-18.08,5.08-23.29q.42,19.69.85,39.38C103.1,447,103.19,442.87,102.35,439.82ZM103.62,306a127.65,127.65,0,0,1-.85,13.55c-2,.41-3.56-.87-5.08.43L96,319.56c-1.16-8.93-.14-17.21-.85-25.82,2.64-.7,7.14-.84,9.32-2.12H107l.42,12.7C106.42,305.29,105.19,305.54,103.62,306ZM93.46,162.9c-3.46-13-.26-35.05-.43-49.54-.11-10.06-3.25-23-.42-32.18,4.53-4.26,23.89-2.41,30.91-5.08h5.08c2.68,5.91.14,15.62,1.27,22.86l.42,68.6c-7.11-4.33-12-6.66-21.17-2.54C107.55,166,98.71,163,93.46,162.9ZM129,213.29c0,21.2.92,38,.85,54.62-4.54.12-10.67.6-13.12-1.27-2.62-2-1.7-9.53-1.7-14V213.71Zm-14-24.14c6.54.31,8.16-.68,11.86-3.81v9.74l-11.44.42Zm.42,103.74c2.5-3.33,12.55-2.19,17.37-2.12v32.61l-14-.85v-14C117.66,304.33,111.34,298.94,115.47,292.89Zm7.63,180h-.43q1.27-2.32,2.54-4.65l-3.38-3.39q-1.27-64.57-2.54-129.15l13.55,1.27q1.26,65.85,2.54,131.69C131.9,471.18,128.25,471.6,123.1,472.84ZM209.9,522v.42l-1.7-.42ZM182.38,269.6v1.27L172.21,270l-.84-1.27.42-55.46,11,.42Z" transform="translate(0)"/></g></g><g id="ico"><path id="weight" d="M483,240.92,443.51,83.07c-2.05-8.21-8.88-13.9-16.68-13.9H394.27A51.37,51.37,0,0,0,345.58,0,51.88,51.88,0,0,0,293.7,51.88a51.19,51.19,0,0,0,3.18,17.29H264.32c-7.8,0-14.63,5.69-16.68,13.9L208.17,240.92c-4.5,18,7.92,35.74,25,35.74H458C475.05,276.66,487.48,258.92,483,240.92ZM345.57,69.16a17.29,17.29,0,1,1,17.29-17.29A17.31,17.31,0,0,1,345.57,69.16Z" transform="translate(0)"/><g id="kg"><path class="cls-3" d="M312.76,179.21l-7.52,8.55v22.86h-8.79V143h8.79v33l6.55-8.18L331.63,143h10.46l-23.66,29.6,25.24,38.06H333.21Z" transform="translate(0)"/><path class="cls-3" d="M397.43,201.75a27.15,27.15,0,0,1-9.8,7.43,29.48,29.48,0,0,1-12.13,2.37,23.88,23.88,0,0,1-7.69-1.27,22.22,22.22,0,0,1-6.3-3.4,24.08,24.08,0,0,1-4.88-5.09,32.23,32.23,0,0,1-3.51-6.34,36.34,36.34,0,0,1-2.13-7.16,42.49,42.49,0,0,1-.77-7.55v-7.85a48.74,48.74,0,0,1,.67-7.51,37.86,37.86,0,0,1,1.93-7.17,32,32,0,0,1,3.25-6.39,22.17,22.17,0,0,1,4.67-5.12,21.84,21.84,0,0,1,6.16-3.41,22.28,22.28,0,0,1,7.72-1.26,25.07,25.07,0,0,1,8.73,1.47,20.67,20.67,0,0,1,7,4.18,20.93,20.93,0,0,1,4.79,6.55,25.1,25.1,0,0,1,2.23,8.58h-8.5a24.8,24.8,0,0,0-1.58-5.42,13.66,13.66,0,0,0-2.82-4.25,12.44,12.44,0,0,0-4.15-2.77,14.82,14.82,0,0,0-5.63-1,13.33,13.33,0,0,0-5.44,1,13.67,13.67,0,0,0-4.13,2.81,15.54,15.54,0,0,0-2.93,4.12,29,29,0,0,0-1.9,4.94,33.18,33.18,0,0,0-1.07,5.3,42.88,42.88,0,0,0-.33,5.21v7.94a42.39,42.39,0,0,0,.44,5.28,33.4,33.4,0,0,0,1.24,5.32,26,26,0,0,0,2.13,4.92,17.5,17.5,0,0,0,3.14,4.09,14,14,0,0,0,4.25,2.81,14.17,14.17,0,0,0,5.49,1.1,31.28,31.28,0,0,0,3.69-.14,18.1,18.1,0,0,0,3.74-.75,14.78,14.78,0,0,0,3.39-1.51,8.48,8.48,0,0,0,2.65-2.48l.09-15.2H375.36v-7.25h21.93Z" transform="translate(0)"/></g></g></g></svg>