<svg xmlns="http://www.w3.org/2000/svg" viewBox="0 0 488.95 505.56"><defs><style>.cls-1{isolation:isolate;}.cls-2{fill-rule:evenodd;}</style></defs><title>ico-h-money</title><g id="Слой_2" data-name="Слой 2"><g id="shtab" class="cls-1"><g id="Изображение_2" data-name="Изображение 2"><path class="cls-2" d="M328.88,236.64v-1.27c-15.69-2.11-35.92-1.12-51.23,1.27l-25.83,1.28c-8.59,1.35-19.37,2.44-28.37,1.27l-.43-.85,45.31-5.51.42-.84c-6.1-2.51-19-1-25.4,0l-49.12,2.54-.42-8.47-3.81-.85q-.42-28.78-.85-57.58l3,.42-.42-18.63H171.37c-.14-2.4-.29-4.8-.43-7.2l-9.74-.85q-1.26-70.49-2.54-141c-.71-.62-23.94-.46-27.1.43l-3,2.54L111.66,5.88C95.57,10,78.85,11.73,63.82,13.5c-.14,1.84-.28,3.67-.43,5.51L54.5,20.28v19.9h8.89l2.12,1.69c-.64,3.89.89,10.59.42,14.4-3.08,25,0,52.36,0,77.48-43.62-2.28-34.41,13.87-41.07,48.7-3.48,18.22-5,42.18,12.28,45.73C43.65,253,39.6,261.19,63,270.1c.56,3.38,1.13,6.77,1.69,10.16,8.39,30.63,6.61,81.89,6.36,119.4-4.61-1.63-10.31-8.33-16.94-6.35-1.49.82-1.66,1.08-2.12,3,1.8,3.5,3.77,5.7,8,6.77v1.69L34.18,406c0-6.69-1.83-9.34-2.54-13.55l6.35,1.7v-.43c-3.57-4.39-13.68-2.05-19.9-3.81l-3,1.27c.14.43.29.85.43,1.27,3.16.62,6.69-2.46,8,2.55l-1.69.42v.42c-.09.2-.24,27.13.42,28.37l3,2.12-8,1.69c-.42,1.7-.85,3.39-1.27,5.08-18.91,1.91-21.38,30.28-5.5,37.26,17.07,7.51,35.62-11.27,25.82-27.09,3.14-4,4.5-5.56,4.24-13.55-2-2.26-4.41-3.52-8.89-3.39,1.06-2.71,17.73-5.4,22.86-3l14,11.86c2.52,2.8.56,19,.43,23.71l12.7,4.66.42,1.27c-11.53,13.75-9.49,35.94,9.74,40.22,15.84,3.53,25-13.66,24.56-28.36l27.1,11c6.34-6.09,21.42-3,30.91-5.92,11.13-3.49,26.12-3.26,38.11-5.51,23-4.32,48.79-6.4,70.71-11,7.63-1.6,21.3,4.76,25,3,2-1,2.63-3.91,4.24-5.08,2.89-2.12,5.37-.06,7.19-3.39,1.34-1.75,1-6.64.85-9.74-14.06-4.38-29.71.51-43.61,3-25.91,4.57-49,4.76-74.52,9.74-8.44,1.65-32,6.47-36,5.08-2.37-2.39-1.41-14.24-1.27-17.36l54.62-7.62V445l7.2-.42c3.1.58,5.56,2.12,10.16,2.11a20.52,20.52,0,0,1,10.16-5.93c1.47-2.52,1.86-5.79,1.69-10.16-4.88-2.67-12.22-.53-18.63-1.27l-64.36,8.47c-2.14-3-1.69-44.09-1.69-51.66q-.85-66.47-1.7-133c14.82-4,32.58-1.55,50-4.24C251.8,242.83,293.45,246.38,328.88,236.64ZM44.76,229.87H54.5l7.2,34.3C53.92,259.56,39.22,242.3,44.76,229.87ZM33.33,219.28c-9-6.43-.49-44.85,1.27-57.16.7-4.91-.34-12,2.12-16.51l9.31-7.2,18.21,2.12c3.21,2.53,1.69,17.11,1.69,22.44q.64,29,1.27,58C55.63,217.57,43.17,226.3,33.33,219.28ZM98.11,373.41l-.84-87.65L103.2,287,104,356.9q-3,7.83-5.93,15.66Zm4.24,20.75L99,387.38c-2.85-7.92,3.5-18.08,5.08-23.28q.42,19.68.85,39.37C103.1,401.35,103.19,397.21,102.35,394.16Zm1.27-133.8a128,128,0,0,1-.85,13.55c-2,.4-3.56-.88-5.08.42L96,273.91c-1.16-8.94-.14-17.22-.85-25.83,2.64-.7,7.14-.84,9.32-2.12H107l.42,12.7C106.42,259.63,105.19,259.88,103.62,260.36ZM93.46,117.24c-3.46-13-.26-35-.43-49.54-.11-10.06-3.25-23.05-.42-32.18,4.53-4.26,23.89-2.41,30.91-5.08h5.08c2.68,5.91.14,15.63,1.27,22.86l.42,68.6c-7.11-4.33-12-6.66-21.17-2.54C107.55,120.36,98.71,117.32,93.46,117.24ZM129,167.63c0,21.2.92,38,.85,54.62-4.54.12-10.67.61-13.12-1.27-2.62-2-1.7-9.53-1.7-14v-39Zm-14-24.14c6.54.31,8.16-.68,11.86-3.81v9.74l-11.44.42Zm.42,103.74c2.5-3.33,12.55-2.19,17.37-2.12v32.61l-14-.85v-14C117.66,258.67,111.34,253.28,115.47,247.23Zm7.63,180h-.43l2.54-4.66-3.38-3.39q-1.27-64.56-2.54-129.14l13.55,1.27q1.26,65.84,2.54,131.68C131.9,425.52,128.25,425.94,123.1,427.19Zm86.8,49.11v.43l-1.7-.43ZM182.38,223.94v1.27l-10.17-.84-.84-1.27.42-55.47,11,.42Z" transform="translate(0 0)"/></g></g><g id="ico"><path id="money" d="M476.91,49.64H260.13a12,12,0,0,0-12,12V182.11a12.06,12.06,0,0,0,12,12H476.91a12,12,0,0,0,12-12V61.68A12,12,0,0,0,476.91,49.64ZM266.15,176.09V152a24.08,24.08,0,0,1,24.08,24.08Zm0-84.3V67.7h24.08A24.08,24.08,0,0,1,266.15,91.79ZM368.52,158c-16.63,0-30.11-16.18-30.11-36.13s13.48-36.13,30.11-36.13,30.1,16.17,30.1,36.13S385.14,158,368.52,158Zm102.36,18.06H446.8A24.08,24.08,0,0,1,470.88,152Zm0-84.3A24.08,24.08,0,0,1,446.8,67.7h24.08Z" transform="translate(0 0)"/></g></g></svg>