<svg xmlns="http://www.w3.org/2000/svg" xmlns:xlink="http://www.w3.org/1999/xlink"><defs><style>
    .sprite-symbol-usage {display: none;}
    .sprite-symbol-usage:target {display: inline;}
  </style><symbol viewBox="0 0 635.89 496.93" id="ico-r"><defs><style>#ico-r .cls-1{isolation:isolate;}#ico-r .cls-2{fill-rule:evenodd;}</style></defs><title>ico-r</title><g id="ico-r_Слой_2" data-name="Слой 2"><g id="ico-r_Изображение_2" data-name="Изображение 2" class="cls-1"><g id="ico-r_Изображение_2-2" data-name="Изображение 2"><path class="cls-2" d="M628,3.62c-29.25-7.88-64.73-3.19-79,17-19.38,27.41-2.93,68.2,21,77,6.83,12,.74,52.19-2,69q-3.5,62.49-7,125c-4.64,14.12-11.53,30.46-15,47l-8,7-1-1c2-4.68,2-5.32,7-7q-.5-7-1-14c-3-3.84-6.78-4.36-14-4q.5-9.51,1-19c-15.92-2.84-30.73-9-45-5-2.8,6.16.39,13.87-1,19-2.82,2.63-16.51,4.09-20,5-11.59,19-33.76,83.58-38,107l-256-20c-24.61-.54-79.2-12.87-98-2-3.34,2.23-3.15,3.3-3,9,6.71,1.52,12.28,3.1,14,10l4,4v1c-29.29-.37-57.78-6.12-84,0l-3,8c4.28,6.14,23.1,19,31,16,9,2,7.81,11.86,17,14l15-3,14,6c10.47,2.13,22.26-4,30-6l63,5,158,15c44.29,7.87,97.39,13.56,142,13,4-10.47,10.48-12.59,13-26,13.81,8.95,30.94,23.21,50,26,25.86,3.77,47.76-27.09,41-53-4.89-18.75-16.77-21.33-33-29,.06-1.21,6.24-8.55,6-20h26c1.46-5,.12-5,6-6,1-2,5.76-17.44,4-21l-6-4s1.13-57.91,3-71q6-95,12-190l34-29C638,56.26,639.6,19,628,3.62Zm-121,352c.33,1.33.67,2.66,1,4h-1Zm5-6c-.41,8.7-4.51,29.29-1,42-.33.66-.67,1.33-1,2l-4-1c4-14.66,4.12-37.17,2-52l12-2h4c.33,1.33.67,2.66,1,4A19.45,19.45,0,0,1,512,349.62Zm65-311c-8.79,3.2-14.63,4.34-19,12v1c8-1.63,7.59-3.11,18-3l-3,42-18-10c-11.89-20.15,2-58.93,23-63Q577.5,28.1,577,38.62Zm16,50,6-77,20,2c3.23,6,2.94,15.11,3,25C622.16,67,614.78,81,593,88.62Z" /></g></g></g></symbol><symbol viewBox="0 0 635.89 497.32" id="ico-r-h"><defs><style>#ico-r-h .cls-1{isolation:isolate;}#ico-r-h .cls-2{fill-rule:evenodd;}</style></defs><title>ico-r-h</title><g id="ico-r-h_" data-name=""><g id="ico-r-h_" data-name="Изображение 2" class="cls-1"><g id="ico-r-h_Изображение_2-2" data-name="Изображение 2"><path class="cls-2" d="M628,4C598.75-3.87,563.27.81,549,21c-19.38,27.42-2.93,68.2,21,77,6.83,12,.74,52.19-2,69q-3.5,62.49-7,125c-4.64,14.13-11.53,30.47-15,47l-8,7-1-1c2-4.67,2-5.31,7-7q-.5-7-1-14c-3-3.83-6.78-4.36-14-4q.5-9.5,1-19c-15.92-2.83-30.73-9-45-5-2.8,6.17.39,13.87-1,19-2.82,2.63-16.51,4.09-20,5-11.59,19-33.76,83.59-38,107L170,407c-24.61-.54-79.2-12.86-98-2-3.34,2.23-3.15,3.31-3,9,6.71,1.53,12.28,3.1,14,10l4,4v1c-29.29-.36-57.78-6.12-84,0l-3,8c4.28,6.15,23.1,19,31,16,9,2,7.81,11.87,17,14l15-3,14,6c10.47,2.14,22.26-4,30-6l63,5,158,15c44.29,7.87,97.39,13.56,142,13,4-10.47,10.48-12.59,13-26,13.81,8.95,30.94,23.22,50,26,25.86,3.78,47.76-27.09,41-53-4.89-18.74-16.77-21.33-33-29,.06-1.21,6.24-8.54,6-20h26c1.46-5,.12-5,6-6,1-2,5.76-17.44,4-21l-6-4s1.13-57.9,3-71l12-190,34-29C638,56.64,639.6,19.35,628,4ZM507,356c.33,1.33.67,2.67,1,4h-1Zm5-6c-.41,8.7-4.51,29.3-1,42-.33.67-.67,1.33-1,2l-4-1c4-14.65,4.12-37.16,2-52l12-2h4l1,4A19.37,19.37,0,0,1,512,350ZM577,39c-8.79,3.21-14.63,4.34-19,12v1c8-1.63,7.59-3.1,18-3l-3,42L555,81c-11.89-20.14,2-58.92,23-63Q577.5,28.5,577,39Zm16,50,6-77,20,2c3.23,6,2.94,15.11,3,25C622.16,67.41,614.78,81.41,593,89Z" /></g></g><g id="ico-r-h_h"><path d="M280,179.74a51.7,51.7,0,0,1,17.6-16.3,48.22,48.22,0,0,1,23.5-6,56.87,56.87,0,0,1,19,3,36.35,36.35,0,0,1,14.58,9.41,43,43,0,0,1,9.29,16.18,73.68,73.68,0,0,1,3.26,23.19v83.8H344.43V209q0-16.36-7.82-24.36t-22.33-7.88a37.87,37.87,0,0,0-19.87,5.35A42.82,42.82,0,0,0,280,196.35v96.72H257.19v-189H280Z" /></g><g id="ico-r-h_Изображение_7" data-name="Изображение 7" class="cls-1"><g id="ico-r-h_Изображение_7-2" data-name="Изображение 7"><polygon class="cls-2" points="123.49 280.2 146.81 280.55 149.23 116.29 125.91 115.95 156.41 1.56 183.51 116.79 160.19 116.45 157.77 280.71 181.09 281.05 150.59 395.44 123.49 280.2" /><path d="M156.38,3.12,183,116.41l-22.45-.33h-.76l0,.76-2.41,163.49v.76h.76l22.46.33-30,112.46L124,280.59l22.45.33h.76l0-.76,2.41-163.49v-.76h-.76l-22.46-.33,30-112.46M156.43,0l-31,116.32,23.43.35-2.41,163.49L123,279.82,150.57,397l31-116.32-23.43-.35,2.41-163.49,23.43.34L156.43,0Z" /></g></g></g></symbol><symbol viewBox="0 0 635.89 496.93" id="ico-r-kg"><defs><style>#ico-r-kg .cls-1{isolation:isolate;}#ico-r-kg .cls-2{fill-rule:evenodd;}#ico-r-kg .cls-3{fill:#fbfbfb;}</style></defs><title>ico-r-kg</title><g id="ico-r-kg_Слой_2" data-name="Слой 2"><g id="ico-r-kg_Изображение_2" data-name="Изображение 2" class="cls-1"><g id="ico-r-kg_Изображение_2-2" data-name="Изображение 2"><path class="cls-2" d="M628,3.62c-29.25-7.88-64.73-3.19-79,17-19.38,27.41-2.93,68.2,21,77,6.83,12,.74,52.19-2,69q-3.5,62.49-7,125c-4.64,14.12-11.53,30.46-15,47l-8,7-1-1c2-4.68,2-5.32,7-7q-.5-7-1-14c-3-3.84-6.78-4.36-14-4q.5-9.51,1-19c-15.92-2.84-30.73-9-45-5-2.8,6.16.39,13.87-1,19-2.82,2.63-16.51,4.09-20,5-11.59,19-33.76,83.58-38,107l-256-20c-24.61-.54-79.2-12.87-98-2-3.34,2.23-3.15,3.3-3,9,6.71,1.52,12.28,3.1,14,10l4,4v1c-29.29-.37-57.78-6.12-84,0l-3,8c4.28,6.14,23.1,19,31,16,9,2,7.81,11.86,17,14l15-3,14,6c10.47,2.13,22.26-4,30-6l63,5,158,15c44.29,7.87,97.39,13.56,142,13,4-10.47,10.48-12.59,13-26,13.81,8.95,30.94,23.21,50,26,25.86,3.77,47.76-27.09,41-53-4.89-18.75-16.77-21.33-33-29,.06-1.21,6.24-8.55,6-20h26c1.46-5,.12-5,6-6,1-2,5.76-17.44,4-21l-6-4s1.13-57.91,3-71q6-95,12-190l34-29C638,56.26,639.6,19,628,3.62Zm-121,352c.33,1.33.67,2.66,1,4h-1Zm5-6c-.41,8.7-4.51,29.29-1,42-.33.66-.67,1.33-1,2l-4-1c4-14.66,4.12-37.17,2-52l12-2h4c.33,1.33.67,2.66,1,4A19.45,19.45,0,0,1,512,349.62Zm65-311c-8.79,3.2-14.63,4.34-19,12v1c8-1.63,7.59-3.11,18-3l-3,42-18-10c-11.89-20.15,2-58.93,23-63Q577.5,28.1,577,38.62Zm16,50,6-77,20,2c3.23,6,2.94,15.11,3,25C622.16,67,614.78,81,593,88.62Z" /></g></g><g id="ico-r-kg_Изображение_8" data-name="Изображение 8" class="cls-1"><g id="ico-r-kg_Изображение_8-2" data-name="Изображение 8"><path class="cls-2" d="M272.31,383.27h0c-7.59,0-15.56-.16-23.67-.48-46.67-1.85-84.82-8.4-113.39-19.47S87,336.4,76.48,316.16C66.21,296.31,64.6,271.68,71.69,243s23.12-62.46,47.61-100.13C167.59,68.59,215,31,260.07,31,283.7,31,307.23,41.27,330,61.63s45.55,51.42,67.54,92.21c21,39,34.1,73.46,38.92,102.47s1.5,53.27-9.84,72.26C405,364.87,353,383.27,272.31,383.27Z" /><path d="M260.07,31.29c23.54,0,47,10.3,69.72,30.6s45.5,51.35,67.46,92.11c21,39,34.08,73.4,38.89,102.36s1.5,53.11-9.8,72c-10.78,18.06-29.18,31.81-54.68,40.86s-59,13.68-99.36,13.68c-7.59,0-15.55-.17-23.66-.49C202,380.6,163.9,374.05,135.37,363s-48.16-26.83-58.58-47C66.56,296.23,65,271.68,72,243s23.1-62.39,47.57-100c24.14-37.11,48.21-65.32,71.55-83.86s46.47-27.86,68.93-27.86m0-.69q-68.19,0-141,112Q-30.23,372.1,248.61,383.13q12.24.48,23.69.49,249.48,0,125.56-229.94Q331.54,30.6,260.07,30.6Z" /></g></g><g id="ico-r-kg_kg"><path class="cls-3" d="M179.11,254.75l-16.74,16.12v46H139.49v-189h22.88V243.55l14.89-16,43.68-43.8h27.69l-53.9,55.49,62.14,77.65H228Z" /><path class="cls-3" d="M286.28,249.21a97.88,97.88,0,0,1,3.63-27.38,64.55,64.55,0,0,1,10.52-21.47,49.19,49.19,0,0,1,16.74-14,48.14,48.14,0,0,1,22.27-5A50.25,50.25,0,0,1,361,185.66a43.4,43.4,0,0,1,15.81,12.61L378,183.75h20.67V314.06a62,62,0,0,1-4.12,23.37,48.15,48.15,0,0,1-29.35,28.18,67.66,67.66,0,0,1-22.88,3.69,68.81,68.81,0,0,1-11.81-1.17A72.2,72.2,0,0,1,317,364.32a62,62,0,0,1-13.16-7.07,43.8,43.8,0,0,1-10.89-11l11.81-13.65a58.75,58.75,0,0,0,8.61,8.55,44.84,44.84,0,0,0,9,5.6,41.55,41.55,0,0,0,9.11,3,45.32,45.32,0,0,0,9.1.92,43.42,43.42,0,0,0,14.65-2.33,30.45,30.45,0,0,0,11.13-6.83,29.65,29.65,0,0,0,7.08-11.14,43.81,43.81,0,0,0,2.46-15.26V303.72a44.43,44.43,0,0,1-15.69,11.63,51.56,51.56,0,0,1-21,4,46.69,46.69,0,0,1-22-5.17,49.33,49.33,0,0,1-16.68-14.27A67.7,67.7,0,0,1,290,278.43a92.72,92.72,0,0,1-3.69-26.64Zm22.77,2.58a80.9,80.9,0,0,0,2,18.46,47.08,47.08,0,0,0,6.39,15.38,32.48,32.48,0,0,0,11.14,10.52A32.08,32.08,0,0,0,344.85,300a37,37,0,0,0,10.65-1.42,29.91,29.91,0,0,0,8.49-4,32.8,32.8,0,0,0,6.7-6.15,43.68,43.68,0,0,0,5.17-7.87v-61a41.39,41.39,0,0,0-5.17-7.63A32,32,0,0,0,355.43,202a35.64,35.64,0,0,0-10.33-1.41,32.41,32.41,0,0,0-16.43,3.93,32.78,32.78,0,0,0-11.2,10.65,47.84,47.84,0,0,0-6.39,15.5,81.81,81.81,0,0,0-2,18.52Z" /></g></g></symbol><symbol viewBox="0 0 635.89 496.93" id="ico-r-w"><defs><style>#ico-r-w .cls-1{isolation:isolate;}#ico-r-w .cls-2{fill-rule:evenodd;}</style></defs><title>ico-r-w</title><g id="ico-r-w_Слой_2" data-name="Слой 2"><g id="ico-r-w_Изображение_2" data-name="Изображение 2" class="cls-1"><g id="ico-r-w_Изображение_2-2" data-name="Изображение 2"><path class="cls-2" d="M628,3.62c-29.25-7.88-64.73-3.19-79,17-19.38,27.41-2.93,68.2,21,77,6.83,12,.74,52.19-2,69q-3.5,62.49-7,125c-4.64,14.12-11.53,30.46-15,47l-8,7-1-1c2-4.68,2-5.32,7-7q-.5-7-1-14c-3-3.84-6.78-4.36-14-4q.5-9.51,1-19c-15.92-2.84-30.73-9-45-5-2.8,6.16.39,13.87-1,19-2.82,2.63-16.51,4.09-20,5-11.59,19-33.76,83.58-38,107l-256-20c-24.61-.54-79.2-12.87-98-2-3.34,2.23-3.15,3.3-3,9,6.71,1.52,12.28,3.1,14,10l4,4v1c-29.29-.37-57.78-6.12-84,0l-3,8c4.28,6.14,23.1,19,31,16,9,2,7.81,11.86,17,14l15-3,14,6c10.47,2.13,22.26-4,30-6l63,5,158,15c44.29,7.87,97.39,13.56,142,13,4-10.47,10.48-12.59,13-26,13.81,8.95,30.94,23.21,50,26,25.86,3.77,47.76-27.09,41-53-4.89-18.75-16.77-21.33-33-29,.06-1.21,6.24-8.55,6-20h26c1.46-5,.12-5,6-6,1-2,5.76-17.44,4-21l-6-4s1.13-57.91,3-71q6-95,12-190l34-29C638,56.26,639.6,19,628,3.62Zm-121,352c.33,1.33.67,2.66,1,4h-1Zm5-6c-.41,8.7-4.51,29.29-1,42-.33.66-.67,1.33-1,2l-4-1c4-14.66,4.12-37.17,2-52l12-2h4c.33,1.33.67,2.66,1,4A19.45,19.45,0,0,1,512,349.62Zm65-311c-8.79,3.2-14.63,4.34-19,12v1c8-1.63,7.59-3.11,18-3l-3,42-18-10c-11.89-20.15,2-58.93,23-63Q577.5,28.1,577,38.62Zm16,50,6-77,20,2c3.23,6,2.94,15.11,3,25C622.16,67,614.78,81,593,88.62Z" /></g></g><g id="ico-r-w_w"><path d="M212.71,179.73l2.7,19.07,3.33-19.07L240,94.83h14.65l21.16,84.9,3.57,20.92,3.32-20.92,14.77-84.9h20.18L289.37,228h-18l-20.79-81.58-3.45-20.67-3.32,20.67L223.29,228h-18L177,94.83H197.2Z" /></g><g id="ico-r-w_Изображение_5" data-name="Изображение 5" class="cls-1"><g id="ico-r-w_Изображение_5-2" data-name="Изображение 5"><polygon class="cls-2" points="450 277.62 350 252.62 350 272.62 145 272.62 145 252.62 45 277.62 145 302.62 145 282.62 350 282.62 350 302.62 450 277.62" /></g></g></g></symbol><symbol viewBox="0 0 328.88 505.56" id="ico-s"><defs><style>#ico-s .cls-1{isolation:isolate;}#ico-s .cls-2{fill-rule:evenodd;}</style></defs><title>ico-s</title><g id="ico-s_Слой_2" data-name="Слой 2"><g id="ico-s_Изображение_2" data-name="Изображение 2" class="cls-1"><g id="ico-s_Изображение_2-2" data-name="Изображение 2"><path class="cls-2" d="M328.88,236.64v-1.27c-15.69-2.11-35.92-1.12-51.23,1.27l-25.83,1.28c-8.59,1.35-19.37,2.44-28.37,1.27l-.43-.85,45.31-5.51.42-.84c-6.1-2.51-19-1-25.4,0l-49.12,2.54-.42-8.47-3.81-.85q-.42-28.78-.85-57.58l3,.42-.42-18.63H171.37c-.14-2.4-.29-4.8-.43-7.2l-9.74-.85q-1.26-70.49-2.54-141c-.71-.62-23.94-.46-27.1.43l-3,2.54L111.66,5.88C95.57,10,78.85,11.73,63.82,13.5c-.14,1.84-.28,3.67-.43,5.51L54.5,20.28v19.9h8.89l2.12,1.69c-.64,3.89.89,10.59.42,14.4-3.08,25,0,52.36,0,77.48-43.62-2.28-34.41,13.87-41.07,48.7-3.48,18.22-5,42.18,12.28,45.73C43.65,253,39.6,261.19,63,270.1c.56,3.38,1.13,6.77,1.69,10.16,8.39,30.63,6.61,81.89,6.36,119.4-4.61-1.63-10.31-8.33-16.94-6.35-1.49.82-1.66,1.08-2.12,3,1.8,3.5,3.77,5.7,8,6.77v1.69L34.18,406c0-6.69-1.83-9.34-2.54-13.55l6.35,1.7v-.43c-3.57-4.39-13.68-2.05-19.9-3.81l-3,1.27c.14.43.29.85.43,1.27,3.16.62,6.69-2.46,8,2.55l-1.69.42v.42c-.09.2-.24,27.13.42,28.37l3,2.12-8,1.69c-.42,1.7-.85,3.39-1.27,5.08-18.91,1.91-21.38,30.28-5.5,37.26,17.07,7.51,35.62-11.27,25.82-27.09,3.14-4,4.5-5.56,4.24-13.55-2-2.26-4.41-3.52-8.89-3.39,1.06-2.71,17.73-5.4,22.86-3l14,11.86c2.52,2.8.56,19,.43,23.71l12.7,4.66.42,1.27c-11.53,13.75-9.49,35.94,9.74,40.22,15.84,3.53,25-13.66,24.56-28.36l27.1,11c6.34-6.09,21.42-3,30.91-5.92,11.13-3.49,26.12-3.26,38.11-5.51,23-4.32,48.79-6.4,70.71-11,7.63-1.6,21.3,4.76,25,3,2-1,2.63-3.91,4.24-5.08,2.89-2.12,5.37-.06,7.19-3.39,1.34-1.75,1-6.64.85-9.74-14.06-4.38-29.71.51-43.61,3-25.91,4.57-49,4.76-74.52,9.74-8.44,1.65-32,6.47-36,5.08-2.37-2.39-1.41-14.24-1.27-17.36l54.62-7.62V445l7.2-.42c3.1.58,5.56,2.12,10.16,2.11a20.52,20.52,0,0,1,10.16-5.93c1.47-2.52,1.86-5.79,1.69-10.16-4.88-2.67-12.22-.53-18.63-1.27l-64.36,8.47c-2.14-3-1.69-44.09-1.69-51.66q-.85-66.47-1.7-133c14.82-4,32.58-1.55,50-4.24C251.8,242.83,293.45,246.38,328.88,236.64ZM44.76,229.87H54.5l7.2,34.3C53.92,259.56,39.22,242.3,44.76,229.87ZM33.33,219.28c-9-6.43-.49-44.85,1.27-57.16.7-4.91-.34-12,2.12-16.51l9.31-7.2,18.21,2.12c3.21,2.53,1.69,17.11,1.69,22.44q.64,29,1.27,58C55.63,217.57,43.17,226.3,33.33,219.28ZM98.11,373.41l-.84-87.65L103.2,287,104,356.9q-3,7.83-5.93,15.66Zm4.24,20.75L99,387.38c-2.85-7.92,3.5-18.08,5.08-23.28q.42,19.68.85,39.37C103.1,401.35,103.19,397.21,102.35,394.16Zm1.27-133.8a128,128,0,0,1-.85,13.55c-2,.4-3.56-.88-5.08.42L96,273.91c-1.16-8.94-.14-17.22-.85-25.83,2.64-.7,7.14-.84,9.32-2.12H107l.42,12.7C106.42,259.63,105.19,259.88,103.62,260.36ZM93.46,117.24c-3.46-13-.26-35-.43-49.54-.11-10.06-3.25-23.05-.42-32.18,4.53-4.26,23.89-2.41,30.91-5.08h5.08c2.68,5.91.14,15.63,1.27,22.86l.42,68.6c-7.11-4.33-12-6.66-21.17-2.54C107.55,120.36,98.71,117.32,93.46,117.24ZM129,167.63c0,21.2.92,38,.85,54.62-4.54.12-10.67.61-13.12-1.27-2.62-2-1.7-9.53-1.7-14v-39Zm-14-24.14c6.54.31,8.16-.68,11.86-3.81v9.74l-11.44.42Zm.42,103.74c2.5-3.33,12.55-2.19,17.37-2.12v32.61l-14-.85v-14C117.66,258.67,111.34,253.28,115.47,247.23Zm7.63,180h-.43l2.54-4.66-3.38-3.39q-1.27-64.56-2.54-129.14l13.55,1.27q1.26,65.84,2.54,131.68C131.9,425.52,128.25,425.94,123.1,427.19Zm86.8,49.11v.43l-1.7-.43ZM182.38,223.94v1.27l-10.17-.84-.84-1.27.42-55.47,11,.42Z" /></g></g></g></symbol><symbol viewBox="0 0 514.09 556.8" id="ico-s-h"><defs><style>#ico-s-h .cls-1{isolation:isolate;}#ico-s-h .cls-2{fill-rule:evenodd;}</style></defs><title>ico-s-h</title><g id="ico-s-h_Слой_2" data-name="Слой 2"><g id="ico-s-h_Изображение_2" data-name="Изображение 2" class="cls-1"><g id="ico-s-h_Изображение_2-2" data-name="Изображение 2"><path class="cls-2" d="M328.88,254.13v-1.27c-15.69-2.11-35.92-1.12-51.23,1.27l-25.83,1.27c-8.59,1.36-19.37,2.45-28.37,1.27l-.43-.84,45.31-5.51.42-.85c-6.1-2.51-19-1-25.4,0L194.23,252l-.42-8.46L190,242.7q-.42-28.78-.85-57.59l3,.43-.42-18.63H171.37c-.14-2.4-.29-4.8-.43-7.2l-9.74-.85q-1.26-70.49-2.54-141c-.71-.62-23.94-.46-27.1.42l-3,2.55-16.94,2.54C95.57,27.52,78.85,29.22,63.82,31c-.14,1.83-.28,3.67-.43,5.5L54.5,37.76v19.9h8.89l2.12,1.7c-.64,3.89.89,10.59.42,14.39-3.08,25,0,52.36,0,77.49C22.31,149,31.52,165.11,24.86,199.93c-3.48,18.22-5,42.18,12.28,45.73,6.51,24.86,2.46,33,25.83,41.92.56,3.39,1.13,6.78,1.69,10.16,8.39,30.64,6.61,81.9,6.36,119.41-4.61-1.64-10.31-8.34-16.94-6.35-1.49.82-1.66,1.08-2.12,3,1.8,3.5,3.77,5.71,8,6.78v1.69L34.18,423.5c0-6.69-1.83-9.35-2.54-13.55L38,411.64v-.42c-3.57-4.39-13.68-2.05-19.9-3.81l-3,1.27.43,1.27c3.16.61,6.69-2.46,8,2.54l-1.69.42v.43c-.09.2-.24,27.12.42,28.37l3,2.11-8,1.7L16,450.6c-18.91,1.91-21.38,30.28-5.5,37.26,17.07,7.51,35.62-11.27,25.82-27.1,3.14-4,4.5-5.55,4.24-13.55-2-2.26-4.41-3.52-8.89-3.39,1.06-2.7,17.73-5.4,22.86-3l14,11.86c2.52,2.8.56,19,.43,23.71l12.7,4.66.42,1.27c-11.53,13.75-9.49,35.94,9.74,40.22,15.84,3.53,25-13.66,24.56-28.37l27.1,11c6.34-6.1,21.42-3,30.91-5.93,11.13-3.48,26.12-3.25,38.11-5.5,23-4.32,48.79-6.4,70.71-11,7.63-1.6,21.3,4.76,25,3,2-1,2.63-3.9,4.24-5.08,2.89-2.12,5.37-.05,7.19-3.38,1.34-1.76,1-6.64.85-9.74-14.06-4.38-29.71.51-43.61,3-25.91,4.57-49,4.76-74.52,9.74-8.44,1.65-32,6.47-36,5.08-2.37-2.4-1.41-14.25-1.27-17.36l54.62-7.62v2.12l7.2-.43c3.1.59,5.56,2.13,10.16,2.12a20.45,20.45,0,0,1,10.16-5.93c1.47-2.52,1.86-5.79,1.69-10.16-4.88-2.67-12.22-.54-18.63-1.27l-64.36,8.47c-2.14-3.05-1.69-44.1-1.69-51.66q-.85-66.47-1.7-133c14.82-3.95,32.58-1.54,50-4.23C251.8,260.32,293.45,263.87,328.88,254.13ZM44.76,247.36H54.5l7.2,34.29C53.92,277.05,39.22,259.79,44.76,247.36ZM33.33,236.77c-9-6.44-.49-44.86,1.27-57.16.7-4.91-.34-12,2.12-16.51L46,155.9,64.24,158c3.21,2.54,1.69,17.12,1.69,22.45q.64,29,1.27,58C55.63,235.06,43.17,243.78,33.33,236.77ZM98.11,390.9l-.84-87.65,5.93,1.27.84,69.86q-3,7.85-5.93,15.67Zm4.24,20.74L99,404.87c-2.85-7.93,3.5-18.08,5.08-23.29q.42,19.69.85,39.38C103.1,418.83,103.19,414.7,102.35,411.64Zm1.27-133.8a127.65,127.65,0,0,1-.85,13.55c-2,.4-3.56-.87-5.08.43L96,291.39c-1.16-8.93-.14-17.22-.85-25.83,2.64-.69,7.14-.83,9.32-2.11H107l.42,12.7C106.42,277.11,105.19,277.37,103.62,277.84ZM93.46,134.73c-3.46-13-.26-35-.43-49.54-.11-10.07-3.25-23-.42-32.18,4.53-4.26,23.89-2.41,30.91-5.09h5.08c2.68,5.91.14,15.63,1.27,22.87l.42,68.59c-7.11-4.32-12-6.65-21.17-2.54C107.55,137.85,98.71,134.81,93.46,134.73ZM129,185.11c0,21.21.92,38,.85,54.62-4.54.12-10.67.61-13.12-1.27-2.62-2-1.7-9.53-1.7-14v-39Zm-14-24.13c6.54.31,8.16-.69,11.86-3.81v9.74l-11.44.42Zm.42,103.74c2.5-3.33,12.55-2.19,17.37-2.12v32.6l-14-.84v-14C117.66,276.16,111.34,270.77,115.47,264.72Zm7.63,180h-.43q1.27-2.32,2.54-4.66l-3.38-3.38q-1.27-64.58-2.54-129.15l13.55,1.27q1.26,65.83,2.54,131.69C131.9,443,128.25,443.43,123.1,444.67Zm86.8,49.12v.42l-1.7-.42ZM182.38,241.43v1.27l-10.17-.85-.84-1.27.42-55.47,11,.43Z" /></g></g><g id="ico-s-h_Изображение_6" data-name="Изображение 6" class="cls-1"><g id="ico-s-h_Изображение_6-2" data-name="Изображение 6"><polygon class="cls-2" points="353.76 169.41 382.56 169.41 346.56 0 310.56 169.41 339.36 169.41 339.36 387.39 310.56 387.39 346.56 556.8 382.56 387.39 353.76 387.39 353.76 169.41" /></g></g><g id="ico-s-h_h"><path d="M426.85,259.4a51.7,51.7,0,0,1,17.6-16.3,48.44,48.44,0,0,1,23.5-6,56.87,56.87,0,0,1,19,3,36.35,36.35,0,0,1,14.58,9.41,43,43,0,0,1,9.29,16.18,73.74,73.74,0,0,1,3.26,23.2v83.79H491.33v-84q0-16.37-7.81-24.36t-22.34-7.88a38,38,0,0,0-19.87,5.35A42.75,42.75,0,0,0,426.85,276v96.71H404.09v-189h22.76Z" /></g></g></symbol></defs><use id="ico-r-usage" xlink:href="#ico-r" class="sprite-symbol-usage" /><use id="ico-r-h-usage" xlink:href="#ico-r-h" class="sprite-symbol-usage" /><use id="ico-r-kg-usage" xlink:href="#ico-r-kg" class="sprite-symbol-usage" /><use id="ico-r-w-usage" xlink:href="#ico-r-w" class="sprite-symbol-usage" /><use id="ico-s-usage" xlink:href="#ico-s" class="sprite-symbol-usage" /><use id="ico-s-h-usage" xlink:href="#ico-s-h" class="sprite-symbol-usage" /></svg>